<svg version="1.1" id="Layer_1" xmlns="http://www.w3.org/2000/svg" xmlns:xlink="http://www.w3.org/1999/xlink" x="0px" y="0px"
	 width="100%" viewBox="0 0 235 237" enable-background="new 0 0 235 237" xml:space="preserve">
<path fill="#FDFDFE" opacity="1.000000" stroke="none" 
	d="
M134.000000,238.000000 
	C89.333336,238.000000 45.166672,238.000000 1.000006,238.000000 
	C1.000004,159.000000 1.000004,80.000015 1.000002,1.000016 
	C79.333321,1.000011 157.666641,1.000011 235.999969,1.000005 
	C235.999985,79.999985 235.999985,158.999969 236.000000,237.999969 
	C202.166672,238.000000 168.333328,238.000000 134.000000,238.000000 
M210.418884,190.908066 
	C241.789871,148.304031 242.638123,94.535469 212.616943,51.580223 
	C181.430847,6.958170 119.659431,-9.860976 71.226173,13.082299 
	C10.500009,41.848835 -14.872840,111.208282 14.971805,171.441040 
	C36.295856,214.477448 72.632286,236.561401 120.783363,236.346664 
	C157.413834,236.183289 187.082947,220.021561 210.418884,190.908066 
z"/>
<path fill="#446188" opacity="1.000000" stroke="none" 
	d="
M210.199249,191.188797 
	C187.082947,220.021561 157.413834,236.183289 120.783363,236.346664 
	C72.632286,236.561401 36.295856,214.477448 14.971805,171.441040 
	C-14.872840,111.208282 10.500009,41.848835 71.226173,13.082299 
	C119.659431,-9.860976 181.430847,6.958170 212.616943,51.580223 
	C242.638123,94.535469 241.789871,148.304031 210.199249,191.188797 
M79.453888,85.731865 
	C78.409790,82.058525 77.632629,78.281860 76.259888,74.735741 
	C74.128029,69.228615 72.249161,63.445332 69.047935,58.578358 
	C65.548271,53.257671 58.977188,49.772942 61.099236,41.336655 
	C23.900200,66.403763 5.485575,126.852684 38.828156,175.344238 
	C69.771614,220.346649 126.491905,225.764984 158.816467,207.523880 
	C158.256317,205.136978 157.536713,202.747345 157.150009,200.305008 
	C155.531601,190.083054 150.793686,181.846741 143.241196,174.599426 
	C135.991821,167.642990 129.310715,159.910049 123.461479,151.743637 
	C119.564514,146.302902 117.720551,139.425568 114.678139,133.330780 
	C110.320259,124.600761 106.675377,115.279778 100.933708,107.540924 
	C95.061363,99.625931 87.026321,93.315498 79.453888,85.731865 
M139.149490,105.804581 
	C136.312164,111.815872 136.808914,117.332710 141.414444,122.365715 
	C142.750336,123.825592 143.749222,125.590172 144.940201,127.187019 
	C149.881302,133.811890 162.500931,137.529099 170.271561,134.663574 
	C179.592499,131.226349 186.152435,119.522194 184.605865,109.380730 
	C183.959091,105.139702 182.143921,101.758949 178.244843,99.891647 
	C173.925095,97.822868 169.624924,95.429283 165.040298,94.247993 
	C147.605423,89.755638 147.078171,89.712227 139.149490,105.804581 
M108.141312,91.598351 
	C110.464653,91.035812 113.787971,91.222717 114.893555,89.747520 
	C116.908554,87.058891 118.971062,83.115578 118.397774,80.212280 
	C117.987228,78.133171 113.438515,75.919296 110.506233,75.539284 
	C107.104797,75.098465 101.083458,81.408722 101.703110,84.892136 
	C102.124321,87.260033 105.463745,89.108818 108.141312,91.598351 
M146.317383,155.917847 
	C146.975754,154.795410 148.146271,153.676453 148.153915,152.549591 
	C148.162186,151.330154 147.308090,149.279144 146.437393,149.043823 
	C144.340729,148.477173 141.997742,148.600418 139.795898,148.836029 
	C139.368362,148.881775 138.588608,150.931412 138.900208,151.658798 
	C140.145782,154.566360 141.860672,157.163452 146.317383,155.917847 
M128.993958,75.533752 
	C130.617783,75.323303 133.483582,75.431480 133.634537,74.843163 
	C134.102921,73.017410 134.314789,70.039436 133.237717,69.099228 
	C129.399948,65.749161 127.980820,70.667831 124.676147,71.932205 
	C126.277878,73.287987 127.357552,74.201881 128.993958,75.533752 
z"/>
<path fill="#FEFEFE" opacity="1.000000" stroke="none" 
	d="
M79.695938,86.017273 
	C87.026321,93.315498 95.061363,99.625931 100.933708,107.540924 
	C106.675377,115.279778 110.320259,124.600761 114.678139,133.330780 
	C117.720551,139.425568 119.564514,146.302902 123.461479,151.743637 
	C129.310715,159.910049 135.991821,167.642990 143.241196,174.599426 
	C150.793686,181.846741 155.531601,190.083054 157.150009,200.305008 
	C157.536713,202.747345 158.256317,205.136978 158.816467,207.523880 
	C126.491905,225.764984 69.771614,220.346649 38.828156,175.344238 
	C5.485575,126.852684 23.900200,66.403763 61.099236,41.336655 
	C58.977188,49.772942 65.548271,53.257671 69.047935,58.578358 
	C72.249161,63.445332 74.128029,69.228615 76.259888,74.735741 
	C77.632629,78.281860 78.409790,82.058525 79.695938,86.017273 
z"/>
<path fill="#FCFCFD" opacity="1.000000" stroke="none" 
	d="
M139.324280,105.461807 
	C147.078171,89.712227 147.605423,89.755638 165.040298,94.247993 
	C169.624924,95.429283 173.925095,97.822868 178.244843,99.891647 
	C182.143921,101.758949 183.959091,105.139702 184.605865,109.380730 
	C186.152435,119.522194 179.592499,131.226349 170.271561,134.663574 
	C162.500931,137.529099 149.881302,133.811890 144.940201,127.187019 
	C143.749222,125.590172 142.750336,123.825592 141.414444,122.365715 
	C136.808914,117.332710 136.312164,111.815872 139.324280,105.461807 
z"/>
<path fill="#F8F9FA" opacity="1.000000" stroke="none" 
	d="
M107.819748,91.394043 
	C105.463745,89.108818 102.124321,87.260033 101.703110,84.892136 
	C101.083458,81.408722 107.104797,75.098465 110.506233,75.539284 
	C113.438515,75.919296 117.987228,78.133171 118.397774,80.212280 
	C118.971062,83.115578 116.908554,87.058891 114.893555,89.747520 
	C113.787971,91.222717 110.464653,91.035812 107.819748,91.394043 
z"/>
<path fill="#F1F2F5" opacity="1.000000" stroke="none" 
	d="
M146.037506,156.141006 
	C141.860672,157.163452 140.145782,154.566360 138.900208,151.658798 
	C138.588608,150.931412 139.368362,148.881775 139.795898,148.836029 
	C141.997742,148.600418 144.340729,148.477173 146.437393,149.043823 
	C147.308090,149.279144 148.162186,151.330154 148.153915,152.549591 
	C148.146271,153.676453 146.975754,154.795410 146.037506,156.141006 
z"/>
<path fill="#EEF0F4" opacity="1.000000" stroke="none" 
	d="
M128.715591,75.324760 
	C127.357552,74.201881 126.277878,73.287987 124.676147,71.932205 
	C127.980820,70.667831 129.399948,65.749161 133.237717,69.099228 
	C134.314789,70.039436 134.102921,73.017410 133.634537,74.843163 
	C133.483582,75.431480 130.617783,75.323303 128.715591,75.324760 
z"/>
</svg>