<svg version="1.1" id="Layer_1" xmlns="http://www.w3.org/2000/svg" xmlns:xlink="http://www.w3.org/1999/xlink" x="0px" y="0px"
	 width="100%" viewBox="0 0 113 111" enable-background="new 0 0 113 111" xml:space="preserve">
<path fill="#FCFCFD" opacity="1.000000" stroke="none" 
	d="
M70.000000,112.000000 
	C46.666668,112.000000 23.833334,112.000000 1.000000,112.000000 
	C1.000000,75.000000 1.000000,38.000000 1.000000,1.000000 
	C38.666668,1.000000 76.333336,1.000000 114.000000,1.000000 
	C114.000000,38.000000 114.000000,75.000000 114.000000,112.000000 
	C99.500000,112.000000 85.000000,112.000000 70.000000,112.000000 
M73.452713,108.126137 
	C91.917976,102.188385 104.482780,90.020287 110.001755,71.506027 
	C121.551460,32.760765 86.552040,-5.020968 46.916962,3.247687 
	C17.815653,9.318791 1.456104,33.359318 2.449471,57.731491 
	C3.935274,94.185562 37.191166,117.664604 73.452713,108.126137 
z"/>
<path fill="#456389" opacity="1.000000" stroke="none" 
	d="
M73.058929,108.223663 
	C37.191166,117.664604 3.935274,94.185562 2.449471,57.731491 
	C1.456104,33.359318 17.815653,9.318791 46.916962,3.247687 
	C86.552040,-5.020968 121.551460,32.760765 110.001755,71.506027 
	C104.482780,90.020287 91.917976,102.188385 73.058929,108.223663 
M57.276028,20.732246 
	C57.493179,29.119585 54.994251,36.358173 48.626099,41.899502 
	C46.445583,38.442562 44.357182,35.131664 42.193745,31.701801 
	C41.361893,35.751034 41.499687,39.330341 39.932274,41.848087 
	C36.387337,47.542370 32.371525,52.846420 34.044182,59.780018 
	C28.469339,61.590649 23.266327,62.810257 18.479561,64.957695 
	C12.866467,67.475838 11.579238,74.178223 16.262205,76.902748 
	C20.908613,79.605995 26.439882,80.788315 31.583082,82.637665 
	C31.877712,82.046448 32.172344,81.455223 32.466972,80.864006 
	C31.208076,79.796844 29.761452,78.883003 28.734865,77.626099 
	C27.244619,75.801514 26.057600,73.729263 24.741262,71.762642 
	C27.143724,70.239258 29.435696,68.487648 31.979460,67.256134 
	C34.567226,66.003311 36.105751,67.486923 37.495213,69.818542 
	C41.507088,76.550812 47.361084,81.338837 55.082272,82.732056 
	C67.560448,84.983643 80.003471,84.027832 91.955658,79.676506 
	C94.452759,78.767418 98.127434,75.908287 97.994537,74.202065 
	C97.805794,71.778549 94.989899,68.258369 92.599327,67.545776 
	C84.672623,65.182961 79.998245,60.040302 77.457497,52.648502 
	C76.030670,48.497452 75.041855,44.172340 74.179955,39.860832 
	C73.767456,37.797421 74.108948,35.583275 74.108948,33.437401 
	C73.422920,33.291271 72.736893,33.145142 72.050865,32.999016 
	C69.922646,37.744354 67.794418,42.489697 65.666191,47.235035 
	C65.246735,43.609238 65.147003,39.764431 65.739586,36.029457 
	C67.307327,26.147999 64.853210,19.598234 57.276260,15.381058 
	C57.276260,17.015804 57.276260,18.435123 57.276028,20.732246 
z"/>
<path fill="#F7F8FA" opacity="1.000000" stroke="none" 
	d="
M57.276146,20.293344 
	C57.276260,18.435123 57.276260,17.015804 57.276260,15.381058 
	C64.853210,19.598234 67.307327,26.147999 65.739586,36.029457 
	C65.147003,39.764431 65.246735,43.609238 65.666191,47.235035 
	C67.794418,42.489697 69.922646,37.744354 72.050865,32.999016 
	C72.736893,33.145142 73.422920,33.291271 74.108948,33.437401 
	C74.108948,35.583275 73.767456,37.797421 74.179955,39.860832 
	C75.041855,44.172340 76.030670,48.497452 77.457497,52.648502 
	C79.998245,60.040302 84.672623,65.182961 92.599327,67.545776 
	C94.989899,68.258369 97.805794,71.778549 97.994537,74.202065 
	C98.127434,75.908287 94.452759,78.767418 91.955658,79.676506 
	C80.003471,84.027832 67.560448,84.983643 55.082272,82.732056 
	C47.361084,81.338837 41.507088,76.550812 37.495213,69.818542 
	C36.105751,67.486923 34.567226,66.003311 31.979460,67.256134 
	C29.435696,68.487648 27.143724,70.239258 24.741261,71.762642 
	C26.057600,73.729263 27.244619,75.801514 28.734865,77.626099 
	C29.761452,78.883003 31.208076,79.796844 32.466972,80.864006 
	C32.172344,81.455223 31.877712,82.046448 31.583082,82.637665 
	C26.439882,80.788315 20.908613,79.605995 16.262205,76.902748 
	C11.579238,74.178223 12.866467,67.475838 18.479561,64.957695 
	C23.266327,62.810257 28.469339,61.590649 34.044182,59.780018 
	C32.371525,52.846420 36.387337,47.542370 39.932274,41.848087 
	C41.499687,39.330341 41.361893,35.751034 42.193745,31.701801 
	C44.357182,35.131664 46.445583,38.442562 48.626099,41.899502 
	C54.994251,36.358173 57.493179,29.119585 57.276146,20.293344 
M59.781509,49.397980 
	C57.053974,49.362659 55.121487,52.102375 55.314114,55.766247 
	C55.404099,57.477749 55.537556,59.186962 55.651306,60.897213 
	C55.123367,61.224468 54.595432,61.551727 54.067493,61.878986 
	C53.730953,60.600586 53.394413,59.322189 53.057873,58.043793 
	C50.881588,61.924473 49.412262,64.804474 49.050571,67.817444 
	C48.814445,69.784401 49.558445,72.619659 50.941959,73.905304 
	C58.412182,80.847084 81.497025,81.085854 89.207397,74.472885 
	C90.045113,73.754402 90.702980,71.751183 90.302773,70.851814 
	C88.632637,67.098549 82.662689,65.874641 79.746933,68.623528 
	C76.481171,71.702385 73.455925,71.042229 71.454292,67.700653 
	C69.556763,64.532867 68.638741,60.780163 67.263290,57.295219 
	C67.115089,56.919735 66.789299,56.614342 66.402489,56.077381 
	C65.176895,57.169250 64.128349,58.103394 62.104774,59.906170 
	C61.200634,56.031624 60.513885,53.088673 59.781509,49.397980 
z"/>
<path fill="#4A668B" opacity="1.000000" stroke="none" 
	d="
M59.804321,49.771851 
	C60.513885,53.088673 61.200634,56.031624 62.104774,59.906170 
	C64.128349,58.103394 65.176895,57.169250 66.402489,56.077381 
	C66.789299,56.614342 67.115089,56.919735 67.263290,57.295219 
	C68.638741,60.780163 69.556763,64.532867 71.454292,67.700653 
	C73.455925,71.042229 76.481171,71.702385 79.746933,68.623528 
	C82.662689,65.874641 88.632637,67.098549 90.302773,70.851814 
	C90.702980,71.751183 90.045113,73.754402 89.207397,74.472885 
	C81.497025,81.085854 58.412182,80.847084 50.941959,73.905304 
	C49.558445,72.619659 48.814445,69.784401 49.050571,67.817444 
	C49.412262,64.804474 50.881588,61.924473 53.057873,58.043793 
	C53.394413,59.322189 53.730953,60.600586 54.067493,61.878986 
	C54.595432,61.551727 55.123367,61.224468 55.651306,60.897213 
	C55.537556,59.186962 55.404099,57.477749 55.314114,55.766247 
	C55.121487,52.102375 57.053974,49.362659 59.804321,49.771851 
z"/>
</svg>