<svg version="1.1" id="Layer_1" xmlns="http://www.w3.org/2000/svg" xmlns:xlink="http://www.w3.org/1999/xlink" x="0px" y="0px"
	 width="100%" viewBox="0 0 199 198" enable-background="new 0 0 199 198" xml:space="preserve">
<path fill="#FCFDFD" opacity="1.000000" stroke="none" 
	d="
M94.000000,199.000000 
	C63.017368,199.000000 32.034733,199.000000 1.026050,199.000000 
	C1.026050,133.054352 1.026050,67.108688 1.026050,1.081513 
	C67.241745,1.081513 133.483612,1.081513 199.862747,1.081513 
	C199.862747,66.999825 199.862747,132.999863 199.862747,199.000000 
	C169.236252,199.000000 138.586777,199.000000 107.470337,198.710312 
	C107.005692,198.227509 107.008026,198.034393 107.403763,197.778870 
	C109.880928,197.554169 111.964691,197.391891 114.181625,197.421219 
	C114.922729,197.349899 115.530670,197.086990 116.483665,196.674545 
	C117.573112,196.443024 118.317505,196.361038 119.248245,196.484161 
	C120.334991,196.355682 121.235397,196.022110 122.506020,195.540482 
	C124.308640,194.959778 125.740211,194.524384 127.173553,194.094864 
	C180.311600,178.171402 209.115112,124.940292 193.436569,71.634766 
	C176.632462,14.502458 109.242035,-14.024255 56.180817,13.533712 
	C3.219424,41.039829 -13.492855,107.206245 20.629942,156.208557 
	C38.284859,181.562027 63.172142,195.186829 93.995560,198.141022 
	C93.998474,198.618225 93.999237,198.809113 94.000000,199.000000 
z"/>
<path fill="#D0D8E1" opacity="1.000000" stroke="none" 
	d="
M94.462227,199.000000 
	C93.999237,198.809113 93.998474,198.618225 94.343353,197.945343 
	C98.796127,197.589325 102.903236,197.715302 107.010353,197.841278 
	C107.008026,198.034393 107.005692,198.227509 107.001678,198.710312 
	C102.974815,199.000000 98.949638,199.000000 94.462227,199.000000 
z"/>
<path fill="#436188" opacity="1.000000" stroke="none" 
	d="
M107.403763,197.778870 
	C102.903236,197.715302 98.796127,197.589325 94.341217,197.659027 
	C63.172142,195.186829 38.284859,181.562027 20.629942,156.208557 
	C-13.492855,107.206245 3.219424,41.039829 56.180817,13.533712 
	C109.242035,-14.024255 176.632462,14.502458 193.436569,71.634766 
	C209.115112,124.940292 180.311600,178.171402 127.173553,194.094864 
	C125.740211,194.524384 124.308640,194.959778 122.190628,195.396210 
	C120.690651,195.692993 119.876274,195.986023 119.061897,196.279053 
	C118.317505,196.361038 117.573112,196.443024 116.215233,196.529907 
	C115.083984,196.766418 114.566223,196.998032 114.048462,197.229645 
	C111.964691,197.391891 109.880928,197.554169 107.403763,197.778870 
M122.127785,102.764320 
	C125.497803,101.512451 125.497803,101.512451 124.351250,99.290207 
	C124.311844,98.842239 124.272430,98.394272 124.616280,97.650307 
	C124.286400,97.061325 123.956528,96.472343 123.308693,95.205185 
	C123.234871,94.463577 123.161057,93.721977 123.504578,92.708611 
	C123.210411,92.101242 122.916245,91.493866 122.314247,90.123543 
	C121.284149,85.595383 119.644890,81.106270 119.351624,76.530884 
	C118.753494,67.199226 114.522316,61.146461 105.624069,58.129223 
	C101.870041,56.856297 99.298286,54.491970 98.846687,49.916275 
	C98.390015,45.289253 94.342018,44.102303 90.709724,47.131237 
	C90.038284,47.691143 89.593193,48.522465 88.963470,49.331493 
	C84.434517,46.862137 80.154793,44.660641 76.013245,42.224258 
	C73.242065,40.594036 71.467484,40.815594 69.399071,43.604130 
	C61.286541,54.541035 52.898518,65.273499 44.621712,76.088692 
	C41.030109,80.781799 42.001820,91.045013 46.184746,96.293854 
	C46.123474,96.857422 46.062199,97.420998 45.243965,97.848824 
	C35.888134,93.796219 26.097223,95.609947 19.429140,102.839470 
	C20.591530,104.287354 21.784443,105.773254 22.907957,107.172714 
	C36.158413,100.153641 37.775837,100.268425 50.066849,108.795311 
	C63.451927,118.081207 74.572670,118.009346 87.806755,108.551430 
	C99.716232,100.040154 105.118385,100.027176 117.093552,108.481003 
	C131.029404,118.318993 143.133255,118.562180 156.545944,108.163322 
	C164.697037,101.843788 172.310013,100.018394 180.811844,106.838249 
	C181.005295,106.993423 181.432037,106.857773 182.074768,106.857773 
	C183.036789,105.555489 184.100418,104.115669 185.139526,102.709030 
	C177.226639,94.843056 168.329620,93.421371 159.115448,98.555878 
	C156.360657,100.090958 153.830872,102.028137 151.187454,103.765045 
	C140.254745,110.948662 132.693253,110.837654 122.127785,102.764320 
M124.147682,136.435699 
	C133.802383,141.205826 143.169571,140.320145 152.164551,134.772369 
	C155.979843,132.419220 159.537354,129.651428 163.253342,127.133049 
	C167.511002,124.247581 171.884323,123.962631 176.372498,126.680367 
	C177.468613,127.344101 178.675461,127.824989 180.198135,128.569199 
	C181.953079,125.732903 183.568008,123.122871 185.126602,120.603928 
	C177.260788,112.935677 168.239471,111.458565 159.350525,116.333015 
	C156.299942,118.005867 153.520752,120.171684 150.606888,122.096100 
	C140.559525,128.731720 132.309402,128.679199 122.379318,121.905220 
	C120.730057,120.780151 119.146103,119.559273 117.495811,118.435791 
	C111.584778,114.411720 104.937378,112.434021 98.065979,114.233734 
	C93.221069,115.502663 88.482811,117.993309 84.302467,120.830643 
	C72.289764,128.984039 65.313896,129.123337 53.321674,120.789467 
	C50.331005,118.711121 47.230965,116.644707 43.902699,115.226288 
	C35.616398,111.694885 25.041260,114.216713 19.546982,120.945534 
	C21.393017,123.284157 23.299635,125.699524 25.465059,128.442764 
	C33.025784,121.934189 39.591717,124.522865 46.142868,129.430588 
	C49.720520,132.110748 53.478840,134.653122 57.449398,136.683136 
	C64.864304,140.474106 72.568222,140.408417 80.035332,136.760498 
	C83.449097,135.092758 86.637810,132.913391 89.779877,130.750092 
	C98.906647,124.466347 105.986732,124.418343 115.106201,130.674759 
	C117.845444,132.554016 120.681145,134.292648 124.147682,136.435699 
z"/>
<path fill="#D0D8E1" opacity="1.000000" stroke="none" 
	d="
M119.248245,196.484161 
	C119.876274,195.986023 120.690651,195.692993 121.820404,195.544250 
	C121.235397,196.022110 120.334991,196.355682 119.248245,196.484161 
z"/>
<path fill="#D0D8E1" opacity="1.000000" stroke="none" 
	d="
M114.181625,197.421234 
	C114.566223,196.998032 115.083984,196.766418 115.870178,196.679443 
	C115.530670,197.086990 114.922729,197.349899 114.181625,197.421234 
z"/>
<path fill="#FBFBFC" opacity="1.000000" stroke="none" 
	d="
M124.233017,97.946304 
	C124.272430,98.394272 124.311844,98.842239 124.230286,99.861557 
	C121.882042,99.309845 119.526886,98.383369 117.448517,97.031380 
	C105.252769,89.097969 91.438438,90.977188 81.998512,101.977982 
	C81.997734,101.994614 81.979942,101.966331 81.591644,101.897888 
	C76.689804,101.367966 78.871994,97.008369 77.143059,94.596375 
	C76.098404,94.272545 75.084442,94.260231 73.687416,94.230560 
	C72.569397,94.401909 71.834450,94.590614 70.832565,94.649536 
	C70.067902,94.768082 69.570183,95.016396 68.726440,95.271072 
	C67.952354,95.441124 67.524292,95.604797 66.807343,95.655556 
	C65.964134,96.011269 65.409828,96.479889 64.768341,97.356201 
	C64.788109,98.731979 64.950851,99.697876 64.989143,100.668678 
	C65.049576,102.200653 65.026451,103.735931 65.038689,105.269806 
	C63.682106,104.888657 62.337643,104.454506 60.965660,104.140701 
	C59.475891,103.799942 57.360722,102.767792 58.390579,105.840271 
	C58.052742,105.468575 57.795017,105.248207 57.855003,104.710098 
	C57.115524,103.262672 56.058338,102.132988 54.799767,100.733261 
	C51.878269,98.799858 49.158154,97.136497 46.438038,95.473145 
	C42.001820,91.045013 41.030109,80.781799 44.621712,76.088692 
	C52.898518,65.273499 61.286541,54.541035 69.399071,43.604130 
	C71.467484,40.815594 73.242065,40.594036 76.013245,42.224258 
	C80.154793,44.660641 84.434517,46.862137 88.963470,49.331493 
	C89.593193,48.522465 90.038284,47.691143 90.709724,47.131237 
	C94.342018,44.102303 98.390015,45.289253 98.846687,49.916275 
	C99.298286,54.491970 101.870041,56.856297 105.624069,58.129223 
	C114.522316,61.146461 118.753494,67.199226 119.351624,76.530884 
	C119.644890,81.106270 121.284149,85.595383 122.355591,90.780548 
	C122.627045,91.951828 122.857140,92.466095 123.087242,92.980370 
	C123.161057,93.721977 123.234871,94.463577 123.367142,95.826248 
	C123.694725,96.946976 123.963867,97.446640 124.233017,97.946304 
M105.999336,85.308090 
	C103.752533,74.126656 103.784546,74.288170 95.273270,75.975166 
	C92.188606,76.586563 91.335106,77.908363 92.036682,80.715714 
	C92.710907,83.413628 93.368423,86.115723 94.215027,89.554092 
	C98.410248,88.320984 102.136696,87.225662 105.999336,85.308090 
z"/>
<path fill="#F7F8FA" opacity="1.000000" stroke="none" 
	d="
M123.810165,136.265701 
	C120.681145,134.292648 117.845444,132.554016 115.106201,130.674759 
	C105.986732,124.418343 98.906647,124.466347 89.779877,130.750092 
	C86.637810,132.913391 83.449097,135.092758 80.035332,136.760498 
	C72.568222,140.408417 64.864304,140.474106 57.449398,136.683136 
	C53.478840,134.653122 49.720520,132.110748 46.142868,129.430588 
	C39.591717,124.522865 33.025784,121.934189 25.465059,128.442764 
	C23.299635,125.699524 21.393017,123.284157 19.546982,120.945534 
	C25.041260,114.216713 35.616398,111.694885 43.902699,115.226288 
	C47.230965,116.644707 50.331005,118.711121 53.321674,120.789467 
	C65.313896,129.123337 72.289764,128.984039 84.302467,120.830643 
	C88.482811,117.993309 93.221069,115.502663 98.065979,114.233734 
	C104.937378,112.434021 111.584778,114.411720 117.495811,118.435791 
	C119.146103,119.559273 120.730057,120.780151 122.379318,121.905220 
	C132.309402,128.679199 140.559525,128.731720 150.606888,122.096100 
	C153.520752,120.171684 156.299942,118.005867 159.350525,116.333015 
	C168.239471,111.458565 177.260788,112.935677 185.126602,120.603928 
	C183.568008,123.122871 181.953079,125.732903 180.198135,128.569199 
	C178.675461,127.824989 177.468613,127.344101 176.372498,126.680367 
	C171.884323,123.962631 167.511002,124.247581 163.253342,127.133049 
	C159.537354,129.651428 155.979843,132.419220 152.164551,134.772369 
	C143.169571,140.320145 133.802383,141.205826 123.810165,136.265701 
z"/>
<path fill="#F1F4F6" opacity="1.000000" stroke="none" 
	d="
M57.537296,105.027832 
	C57.795017,105.248207 58.052742,105.468575 58.641792,106.157036 
	C67.014595,111.329018 74.416573,108.999451 81.537193,104.442886 
	C82.016685,104.136055 81.847458,102.815437 81.979942,101.966331 
	C81.979942,101.966331 81.997734,101.994614 82.011581,102.397896 
	C83.600449,102.266098 85.368942,102.028030 86.719482,101.148331 
	C96.358887,94.869492 106.135422,93.923416 116.220375,100.001160 
	C118.057877,101.108536 119.887741,102.228600 121.721130,103.342804 
	C132.693253,110.837654 140.254745,110.948662 151.187454,103.765045 
	C153.830872,102.028137 156.360657,100.090958 159.115448,98.555878 
	C168.329620,93.421371 177.226639,94.843056 185.139526,102.709030 
	C184.100418,104.115669 183.036789,105.555489 182.074768,106.857773 
	C181.432037,106.857773 181.005295,106.993423 180.811844,106.838249 
	C172.310013,100.018394 164.697037,101.843788 156.545944,108.163322 
	C143.133255,118.562180 131.029404,118.318993 117.093552,108.481003 
	C105.118385,100.027176 99.716232,100.040154 87.806755,108.551430 
	C74.572670,118.009346 63.451927,118.081207 50.066849,108.795311 
	C37.775837,100.268425 36.158413,100.153641 22.907957,107.172714 
	C21.784443,105.773254 20.591530,104.287354 19.429140,102.839470 
	C26.097223,95.609947 35.888134,93.796219 45.815887,98.193146 
	C49.143951,100.198822 51.900089,101.860176 54.892864,103.762543 
	C55.932098,104.344978 56.734699,104.686401 57.537296,105.027832 
z"/>
<path fill="#6982A1" opacity="1.000000" stroke="none" 
	d="
M121.924454,103.053558 
	C119.887741,102.228600 118.057877,101.108536 116.220375,100.001160 
	C106.135422,93.923416 96.358887,94.869492 86.719482,101.148331 
	C85.368942,102.028030 83.600449,102.266098 82.012360,102.381271 
	C91.438438,90.977188 105.252769,89.097969 117.448517,97.031380 
	C119.526886,98.383369 121.882042,99.309845 124.364334,100.172836 
	C125.497803,101.512451 125.497803,101.512451 121.924454,103.053558 
z"/>
<path fill="#6C84A2" opacity="1.000000" stroke="none" 
	d="
M54.656227,103.521530 
	C51.900089,101.860176 49.143951,100.198822 46.194366,98.261017 
	C46.062199,97.420998 46.123474,96.857422 46.311394,95.883499 
	C49.158154,97.136497 51.878269,98.799858 54.765724,101.154839 
	C54.840786,102.404823 54.748505,102.963173 54.656227,103.521530 
z"/>
<path fill="#6982A1" opacity="1.000000" stroke="none" 
	d="
M124.424652,97.798309 
	C123.963867,97.446640 123.694725,96.946976 123.526115,96.165337 
	C123.956528,96.472343 124.286400,97.061325 124.424652,97.798309 
z"/>
<path fill="#6982A1" opacity="1.000000" stroke="none" 
	d="
M123.295914,92.844490 
	C122.857140,92.466095 122.627045,91.951828 122.509506,91.162018 
	C122.916245,91.493866 123.210411,92.101242 123.295914,92.844490 
z"/>
<path fill="#49668C" opacity="1.000000" stroke="none" 
	d="
M81.591644,101.897888 
	C81.847458,102.815437 82.016685,104.136055 81.537193,104.442886 
	C74.416573,108.999451 67.014595,111.329018 58.721909,106.308350 
	C57.360722,102.767792 59.475891,103.799942 60.965660,104.140701 
	C62.337643,104.454506 63.682106,104.888657 65.038689,105.269806 
	C65.026451,103.735931 65.049576,102.200653 64.989143,100.668678 
	C64.950851,99.697876 64.788109,98.731979 65.045975,97.357010 
	C65.972595,96.556252 66.534416,96.162369 67.096237,95.768478 
	C67.524292,95.604797 67.952354,95.441124 68.867188,95.452072 
	C69.935806,95.344231 70.517654,95.061768 71.099503,94.779312 
	C71.834450,94.590614 72.569397,94.401909 73.926819,94.456894 
	C75.424118,94.769684 76.298935,94.838783 77.173759,94.907883 
	C78.871994,97.008369 76.689804,101.367966 81.591644,101.897888 
z"/>
<path fill="#4C688E" opacity="1.000000" stroke="none" 
	d="
M105.931244,85.719215 
	C102.136696,87.225662 98.410248,88.320984 94.215027,89.554092 
	C93.368423,86.115723 92.710907,83.413628 92.036682,80.715714 
	C91.335106,77.908363 92.188606,76.586563 95.273270,75.975166 
	C103.784546,74.288170 103.752533,74.126656 105.931244,85.719215 
z"/>
<path fill="#6982A1" opacity="1.000000" stroke="none" 
	d="
M77.143059,94.596375 
	C76.298935,94.838783 75.424118,94.769684 74.309891,94.474251 
	C75.084442,94.260231 76.098404,94.272545 77.143059,94.596375 
z"/>
<path fill="#49668C" opacity="1.000000" stroke="none" 
	d="
M54.892860,103.762543 
	C54.748505,102.963173 54.840786,102.404823 54.967106,101.424881 
	C56.058338,102.132988 57.115524,103.262672 57.855003,104.710098 
	C56.734699,104.686401 55.932098,104.344978 54.892860,103.762543 
z"/>
<path fill="#6982A1" opacity="1.000000" stroke="none" 
	d="
M70.832565,94.649536 
	C70.517654,95.061768 69.935806,95.344231 69.213211,95.445702 
	C69.570183,95.016396 70.067902,94.768082 70.832565,94.649536 
z"/>
<path fill="#6982A1" opacity="1.000000" stroke="none" 
	d="
M66.807343,95.655563 
	C66.534416,96.162369 65.972595,96.556252 65.133148,96.949326 
	C65.409828,96.479889 65.964134,96.011269 66.807343,95.655563 
z"/>
</svg>