<svg version="1.1" id="Layer_1" xmlns="http://www.w3.org/2000/svg" xmlns:xlink="http://www.w3.org/1999/xlink" x="0px" y="0px"
	 width="100%" viewBox="0 0 208 209" enable-background="new 0 0 208 209" xml:space="preserve">
<path fill="#FDFDFE" opacity="1.000000" stroke="none" 
	d="
M1.000000,77.000000 
	C1.000000,51.333340 1.000000,26.166679 1.000000,1.000014 
	C70.333313,1.000009 139.666626,1.000009 208.999954,1.000005 
	C208.999969,70.666626 208.999969,140.333252 208.999985,209.999908 
	C139.666718,209.999939 70.333443,209.999939 1.000084,209.999969 
	C1.000000,165.833328 1.000000,121.666664 1.000000,77.000000 
M2.953147,116.355843 
	C5.579377,126.287407 7.198005,136.624039 11.000523,146.082718 
	C30.963140,195.739319 90.730835,221.303055 140.551743,201.980896 
	C194.928314,180.891891 220.907135,122.548317 200.386658,67.602890 
	C179.235062,10.967596 109.883904,-15.231344 57.188229,14.290346 
	C17.978054,36.257053 0.179351,70.555130 2.953147,116.355843 
z"/>
<path fill="#446187" opacity="1.000000" stroke="none" 
	d="
M2.931833,115.902390 
	C0.179351,70.555130 17.978054,36.257053 57.188229,14.290346 
	C109.883904,-15.231344 179.235062,10.967596 200.386658,67.602890 
	C220.907135,122.548317 194.928314,180.891891 140.551743,201.980896 
	C90.730835,221.303055 30.963140,195.739319 11.000523,146.082718 
	C7.198005,136.624039 5.579377,126.287407 2.931833,115.902390 
M76.389786,68.319885 
	C82.278648,78.333817 88.281120,88.283379 94.006126,98.390129 
	C96.675743,103.102997 95.342010,107.953308 91.322487,110.179947 
	C74.057289,119.744057 66.503685,135.576599 69.953308,155.353897 
	C74.367073,180.658813 104.884735,198.706177 131.360550,182.285233 
	C159.709686,164.702393 157.514175,125.165268 128.064590,109.643997 
	C126.594101,108.868988 125.135612,106.557053 125.064590,104.901009 
	C124.743614,97.417290 125.478355,89.862526 124.813683,82.424438 
	C123.222420,64.617409 132.163071,49.505817 136.337143,31.671001 
	C143.683746,49.342384 150.404663,65.572403 157.205658,81.768806 
	C157.881561,83.378448 158.977936,86.027222 159.994080,86.082527 
	C166.993561,86.463493 174.023621,86.282883 181.043839,86.282883 
	C181.126343,85.660110 181.208847,85.037346 181.291351,84.414574 
	C179.970276,83.977119 178.661514,83.212654 177.325882,83.162392 
	C173.000061,82.999619 168.634216,83.391861 164.347702,82.950058 
	C162.683685,82.778557 160.370407,81.299232 159.743744,79.824608 
	C151.842896,61.233131 144.196594,42.533485 136.237366,23.261246 
	C132.604523,34.318504 129.129669,44.894882 125.654808,55.471260 
	C124.922615,48.780060 124.993111,42.285526 124.906303,35.793098 
	C124.771751,25.729315 119.060959,19.857960 109.637970,19.950674 
	C101.084572,20.034832 95.054924,26.651981 95.041405,36.062340 
	C95.016998,53.056599 95.039177,70.050919 95.026901,87.045212 
	C95.025909,88.419846 94.909752,89.794388 94.786919,92.489716 
	C88.234825,81.064590 82.392982,70.877960 76.123283,59.945267 
	C72.899681,67.270851 69.956009,73.401749 67.532074,79.731667 
	C66.499931,82.427032 65.184196,83.202553 62.449856,83.157692 
	C53.122173,83.004631 43.789940,83.052292 34.460682,83.146202 
	C32.890633,83.162003 31.326708,83.786674 29.759954,84.130020 
	C30.788446,85.737831 31.768303,86.358040 32.752293,86.364670 
	C43.748051,86.438812 54.746651,86.522324 65.737831,86.289268 
	C67.084724,86.260712 68.974205,84.678169 69.614174,83.338860 
	C71.898293,78.558731 73.751923,73.572899 76.389786,68.319885 
z"/>
<path fill="#F3F4F7" opacity="1.000000" stroke="none" 
	d="
M76.079132,68.492401 
	C73.751923,73.572899 71.898293,78.558731 69.614174,83.338860 
	C68.974205,84.678169 67.084724,86.260712 65.737831,86.289268 
	C54.746651,86.522324 43.748051,86.438812 32.752293,86.364670 
	C31.768303,86.358040 30.788446,85.737831 29.759954,84.130020 
	C31.326708,83.786674 32.890633,83.162003 34.460682,83.146202 
	C43.789940,83.052292 53.122173,83.004631 62.449856,83.157692 
	C65.184196,83.202553 66.499931,82.427032 67.532074,79.731667 
	C69.956009,73.401749 72.899681,67.270851 76.123283,59.945267 
	C82.392982,70.877960 88.234825,81.064590 94.786919,92.489716 
	C94.909752,89.794388 95.025909,88.419846 95.026901,87.045212 
	C95.039177,70.050919 95.016998,53.056599 95.041405,36.062340 
	C95.054924,26.651981 101.084572,20.034832 109.637970,19.950674 
	C119.060959,19.857960 124.771751,25.729315 124.906303,35.793098 
	C124.993111,42.285526 124.922615,48.780060 125.654808,55.471260 
	C129.129669,44.894882 132.604523,34.318504 136.237366,23.261246 
	C144.196594,42.533485 151.842896,61.233131 159.743744,79.824608 
	C160.370407,81.299232 162.683685,82.778557 164.347702,82.950058 
	C168.634216,83.391861 173.000061,82.999619 177.325882,83.162392 
	C178.661514,83.212654 179.970276,83.977119 181.291351,84.414574 
	C181.208847,85.037346 181.126343,85.660110 181.043839,86.282883 
	C174.023621,86.282883 166.993561,86.463493 159.994080,86.082527 
	C158.977936,86.027222 157.881561,83.378448 157.205658,81.768806 
	C150.404663,65.572403 143.683746,49.342384 136.337143,31.671001 
	C132.163071,49.505817 123.222420,64.617409 124.813683,82.424438 
	C125.478355,89.862526 124.743614,97.417290 125.064590,104.901009 
	C125.135612,106.557053 126.594101,108.868988 128.064590,109.643997 
	C157.514175,125.165268 159.709686,164.702393 131.360550,182.285233 
	C104.884735,198.706177 74.367073,180.658813 69.953308,155.353897 
	C66.503685,135.576599 74.057289,119.744057 91.322487,110.179947 
	C95.342010,107.953308 96.675743,103.102997 94.006126,98.390129 
	C88.281120,88.283379 82.278648,78.333817 76.079132,68.492401 
M101.884827,30.865126 
	C101.489357,33.283596 100.759270,35.700829 100.750305,38.120731 
	C100.663292,61.615311 100.644051,85.110596 100.758034,108.604935 
	C100.773758,111.845764 100.112076,113.620850 96.681381,114.814026 
	C89.900246,117.172462 84.635956,121.868065 80.878174,127.956459 
	C70.812271,144.265305 74.338158,163.453842 89.291748,174.708282 
	C103.810303,185.635300 123.645569,183.833328 136.137482,169.807816 
	C151.585693,152.463074 146.113327,125.277924 124.664719,115.333336 
	C119.904152,113.126122 119.167679,110.950165 119.193588,106.599052 
	C119.333504,83.104996 119.256149,59.609653 119.258202,36.114754 
	C119.258606,31.575556 117.877785,27.823647 113.121887,26.399651 
	C108.708145,25.078098 104.895599,26.011143 101.884827,30.865126 
z"/>
<path fill="#466388" opacity="1.000000" stroke="none" 
	d="
M102.077652,30.500397 
	C104.895599,26.011143 108.708145,25.078098 113.121887,26.399651 
	C117.877785,27.823647 119.258606,31.575556 119.258202,36.114754 
	C119.256149,59.609653 119.333504,83.104996 119.193588,106.599052 
	C119.167679,110.950165 119.904152,113.126122 124.664719,115.333336 
	C146.113327,125.277924 151.585693,152.463074 136.137482,169.807816 
	C123.645569,183.833328 103.810303,185.635300 89.291748,174.708282 
	C74.338158,163.453842 70.812271,144.265305 80.878174,127.956459 
	C84.635956,121.868065 89.900246,117.172462 96.681381,114.814026 
	C100.112076,113.620850 100.773758,111.845764 100.758034,108.604935 
	C100.644051,85.110596 100.663292,61.615311 100.750305,38.120731 
	C100.759270,35.700829 101.489357,33.283596 102.077652,30.500397 
M105.416595,103.499855 
	C105.416260,110.333023 105.242012,117.172348 105.483643,123.996948 
	C105.619118,127.823410 104.824577,130.100510 100.942841,132.099579 
	C92.433929,136.481628 89.887482,146.372940 94.088699,155.358383 
	C97.913589,163.538956 107.707359,167.369888 116.506866,164.127487 
	C124.802071,161.070877 129.429321,151.915268 127.382736,143.033157 
	C125.711792,135.781342 120.632362,131.959167 114.090767,129.508316 
	C114.090767,105.457161 114.090935,81.629890 114.090385,57.802612 
	C114.090347,56.135998 114.569733,54.257317 113.957283,52.857376 
	C113.220291,51.172775 111.283791,48.544334 110.345856,48.731117 
	C108.558083,49.087147 106.767738,50.920040 105.646164,52.588608 
	C104.941498,53.636936 105.422714,55.502102 105.421959,57.000832 
	C105.414391,72.167160 105.417145,87.333496 105.416595,103.499855 
z"/>
<path fill="#F9FAFB" opacity="1.000000" stroke="none" 
	d="
M105.416801,102.999847 
	C105.417145,87.333496 105.414391,72.167160 105.421959,57.000832 
	C105.422714,55.502102 104.941498,53.636936 105.646164,52.588608 
	C106.767738,50.920040 108.558083,49.087147 110.345856,48.731117 
	C111.283791,48.544334 113.220291,51.172775 113.957283,52.857376 
	C114.569733,54.257317 114.090347,56.135998 114.090385,57.802612 
	C114.090935,81.629890 114.090767,105.457161 114.090767,129.508316 
	C120.632362,131.959167 125.711792,135.781342 127.382736,143.033157 
	C129.429321,151.915268 124.802071,161.070877 116.506866,164.127487 
	C107.707359,167.369888 97.913589,163.538956 94.088699,155.358383 
	C89.887482,146.372940 92.433929,136.481628 100.942841,132.099579 
	C104.824577,130.100510 105.619118,127.823410 105.483643,123.996948 
	C105.242012,117.172348 105.416260,110.333023 105.416801,102.999847 
z"/>
</svg>