<?xml version="1.0" standalone="no"?>
<!DOCTYPE svg PUBLIC "-//W3C//DTD SVG 20010904//EN"
 "http://www.w3.org/TR/2001/REC-SVG-20010904/DTD/svg10.dtd">
<svg version="1.0" xmlns="http://www.w3.org/2000/svg"
 width="2112.000000pt" height="2112.000000pt" viewBox="0 0 2112.000000 2112.000000"
 preserveAspectRatio="xMidYMid meet">

<g transform="translate(0.000000,2112.000000) scale(0.100000,-0.100000)"
fill="#000000" stroke="none">
<path d="M8607 15903 c-14 -13 -6 -36 27 -76 43 -53 97 -169 141 -300 18 -56 38 -115 44 -132 5 -16 20 -59 32 -95 12 -36 27 -71 32 -77 6 -8 33 -13 66 -13
80 0 96 19 105 123 3 43 9 84 12 89 10 15 40 -48 49 -99 13 -81 71 -135 110
-103 12 10 23 9 51 -5 32 -15 38 -15 58 -1 19 12 25 27 31 83 3 37 20 149 37
248 34 208 42 350 18 350 -28 0 -66 -102 -121 -323 -34 -141 -59 -222 -66
-222 -7 0 -13 8 -13 17 0 9 -27 75 -61 145 -42 90 -65 152 -76 210 -17 95 -26
110 -62 106 -23 -3 -27 -9 -33 -53 -3 -27 -7 -84 -7 -125 -1 -82 -24 -227 -38
-241 -5 -5 -19 18 -32 54 -105 282 -206 447 -272 447 -14 0 -29 -3 -32 -7z"/>
<path d="M11035 15885 c-33 -8 -103 -19 -155 -25 -163 -20 -160 -19 -171 -47
-8 -22 -6 -32 11 -55 20 -27 21 -41 20 -181 -1 -84 -6 -194 -12 -245 -14 -120
-6 -142 52 -142 51 0 58 16 67 154 l6 102 115 22 c103 20 152 40 152 62 0 4
-21 13 -47 20 -37 11 -63 11 -131 1 -47 -6 -88 -8 -93 -4 -4 4 -12 44 -17 88
-10 87 -5 105 32 105 31 0 199 38 233 52 36 15 73 48 73 64 0 20 -30 44 -53
43 -12 -1 -49 -7 -82 -14z"/>
<path d="M9590 15875 c-8 -10 -17 -83 -26 -213 -7 -108 -18 -222 -24 -252 -17
-91 8 -143 64 -133 30 6 41 33 57 142 15 104 6 398 -13 439 -16 32 -40 39 -58
17z"/>
<path d="M12185 15879 c-159 -12 -157 -11 -181 -61 -19 -40 -21 -60 -20 -294
1 -233 2 -253 20 -273 13 -14 31 -21 55 -21 52 0 192 26 234 43 33 14 57 51
42 65 -4 4 -55 8 -113 9 l-107 1 -3 51 -3 50 38 10 c21 5 58 15 83 21 57 15
70 26 70 58 l0 25 -77 -7 c-43 -3 -87 -7 -97 -9 -22 -2 -28 19 -41 151 l-7 72
128 0 c111 0 134 3 162 20 37 23 43 57 14 83 -20 18 -19 18 -197 6z"/>
<path d="M9817 15838 c-4 -13 -6 -109 -6 -213 1 -117 -4 -207 -11 -234 -15
-56 -5 -107 24 -126 20 -13 38 -13 162 0 166 18 168 19 182 49 11 24 9 25 -41
36 -29 7 -85 14 -125 17 -40 3 -74 9 -77 13 -2 4 -6 74 -9 156 -2 84 -11 175
-19 209 -8 33 -18 72 -21 88 -8 35 -51 39 -59 5z"/>
<path d="M10201 15837 c-8 -8 -11 -83 -11 -250 0 -208 2 -243 17 -268 14 -24
24 -29 55 -29 31 0 38 -4 38 -19 0 -31 49 -64 87 -58 54 9 159 65 212 113 85
77 102 173 50 281 -51 106 -240 226 -370 237 -43 3 -70 1 -78 -7z m162 -97
c83 -47 165 -117 186 -158 46 -91 32 -143 -54 -202 -49 -34 -163 -65 -179 -49
-5 5 -13 75 -17 156 -4 82 -10 178 -14 216 -9 80 -3 83 78 37z"/>
<path d="M11525 15821 l-40 -6 -6 -180 c-4 -99 -10 -224 -14 -278 -7 -94 -7
-99 15 -122 29 -31 73 -32 101 -4 17 17 20 28 15 57 -4 21 -7 45 -9 56 -1 10
10 27 25 39 l27 20 37 -35 c44 -43 157 -91 203 -86 39 4 61 30 46 54 -11 17
-35 32 -110 65 -55 25 -105 66 -105 85 0 7 18 32 39 56 112 122 149 220 100
264 -18 16 -38 19 -153 20 -72 1 -149 -1 -171 -5z m245 -97 c0 -34 -140 -194
-170 -194 -5 0 -10 17 -10 38 0 20 -3 67 -7 105 l-6 67 97 0 c82 0 96 -2 96
-16z"/>
<path d="M11220 15746 c-24 -29 -35 -465 -13 -522 6 -15 98 -20 107 -6 10 16
-20 497 -32 520 -14 25 -44 29 -62 8z"/>
<path d="M10280 14970 c-36 -5 -113 -14 -173 -20 -141 -16 -390 -65 -395 -78
-2 -6 -10 -8 -17 -5 -18 6 -177 -35 -316 -83 -343 -117 -653 -272 -944 -472
-362 -248 -714 -601 -953 -959 -464 -695 -658 -1478 -567 -2293 101 -905 590
-1749 1340 -2311 524 -394 1113 -623 1825 -711 140 -17 660 -17 800 0 541 67
1029 225 1470 477 63 36 118 72 123 81 5 8 40 35 78 59 449 289 852 703 1128
1163 653 1087 656 2414 6 3483 -229 376 -561 733 -925 993 -500 357 -1062 576
-1700 662 -140 18 -668 28 -780 14z m165 -69 c3 -5 1 -12 -5 -16 -5 -3 -10
-14 -10 -24 0 -10 -12 -31 -26 -46 -21 -23 -25 -34 -19 -59 4 -17 7 -135 6
-262 -2 -318 -17 -372 -179 -635 -56 -91 -71 -130 -88 -229 -9 -47 -20 -89
-25 -95 -5 -5 -9 -70 -9 -145 0 -152 13 -195 68 -242 26 -22 45 -27 118 -33
112 -10 178 9 234 66 21 21 41 39 45 39 16 0 -4 -89 -35 -155 -40 -85 -49
-149 -26 -194 10 -18 24 -35 32 -38 18 -7 18 -47 -1 -63 -8 -7 -15 -17 -15
-22 0 -5 -18 -31 -39 -58 -36 -45 -39 -53 -30 -82 12 -42 -5 -101 -43 -155
-22 -30 -29 -48 -24 -66 3 -13 44 -59 91 -102 86 -78 107 -113 85 -140 -15
-18 -9 -28 13 -20 18 8 41 59 34 78 -7 20 8 41 23 32 16 -10 8 -148 -20 -355
-29 -211 -54 -334 -88 -425 -37 -100 -67 -227 -59 -249 9 -24 36 -19 49 9 10
23 48 36 48 17 0 -18 -133 -193 -245 -322 -64 -74 -121 -146 -126 -160 -20
-49 28 -97 82 -83 41 10 101 58 190 149 82 86 135 157 229 311 24 39 48 69 53
66 6 -4 7 -321 2 -843 l-7 -837 28 -22 c21 -16 37 -21 57 -17 15 3 130 8 255
11 389 10 661 39 851 90 l54 14 27 -30 c34 -35 53 -37 84 -6 l23 23 -2 464
c-2 266 -8 516 -14 585 -14 136 -30 606 -21 617 3 4 75 -81 160 -189 183 -232
273 -331 319 -350 41 -17 86 -9 106 20 30 43 19 64 -78 160 -96 95 -326 373
-553 671 -129 170 -303 363 -518 576 -76 75 -116 122 -116 136 0 29 -25 48
-54 40 -18 -4 -28 -18 -41 -55 -29 -88 -219 -353 -395 -551 -110 -124 -182
-216 -251 -323 -24 -37 -45 -61 -47 -53 -6 26 37 186 57 214 23 32 36 101 51
272 14 166 30 280 41 302 5 10 18 18 29 18 36 0 211 49 238 66 34 21 117 109
143 149 36 57 23 111 -43 177 -23 23 -22 49 2 118 25 70 25 103 0 168 -25 66
-25 113 1 197 23 74 22 84 -23 220 -17 51 -33 127 -37 175 -5 50 -16 105 -29
133 -21 47 -22 48 -44 33 -52 -37 -110 -2 -121 72 -6 36 -12 44 -43 57 -28 12
-35 19 -29 32 14 35 17 150 5 189 -7 21 -32 73 -56 115 -38 65 -46 90 -54 157
-9 78 -23 142 -60 272 -10 36 -21 105 -25 155 -10 144 -18 173 -73 289 -7 13
346 0 490 -18 448 -56 831 -172 1213 -366 326 -165 573 -338 835 -584 59 -56
119 -111 134 -123 31 -26 34 -43 6 -43 -45 0 -50 -62 -20 -245 15 -91 20 -168
20 -321 l0 -201 -29 -37 c-29 -36 -29 -39 -28 -152 l1 -116 42 -66 c118 -185
148 -247 163 -342 9 -56 6 -245 -4 -310 -9 -51 8 -85 55 -115 37 -23 45 -25
75 -15 41 14 121 103 159 177 14 29 40 94 56 144 l30 92 -11 150 c-11 177 -29
267 -70 358 -16 36 -29 71 -29 78 0 6 -19 50 -41 96 -38 77 -64 110 -112 140
-11 7 -22 42 -32 110 -9 55 -20 125 -25 155 -5 32 -5 59 0 64 12 12 -11 56
-66 128 -44 56 -55 78 -68 131 -13 54 24 27 110 -80 251 -317 438 -664 562
-1043 115 -354 155 -607 156 -995 1 -295 -28 -531 -96 -800 -184 -727 -606
-1375 -1214 -1861 -149 -119 -310 -229 -349 -238 -16 -4 -46 -18 -66 -31 -122
-80 -418 -218 -630 -294 -667 -240 -1424 -285 -2114 -127 -437 100 -905 310
-1267 567 -684 487 -1157 1193 -1334 1992 -53 240 -68 392 -69 682 0 337 28
562 106 855 74 278 226 637 354 840 l25 39 37 -15 c50 -21 62 -40 63 -97 0
-55 -15 -96 -70 -188 -22 -36 -54 -103 -71 -149 -18 -51 -49 -109 -79 -149
-64 -85 -123 -208 -143 -296 -10 -42 -17 -129 -19 -215 -2 -156 6 -193 56
-232 29 -24 87 -23 119 2 24 19 86 27 100 13 4 -3 0 -14 -9 -24 -20 -23 -14
-60 11 -69 13 -5 63 3 130 20 87 23 114 35 139 59 36 37 37 46 13 282 -15 150
-23 178 -57 202 -20 14 -20 19 -10 158 7 79 15 214 20 299 4 85 12 191 15 236
8 83 -2 124 -29 124 -8 0 -26 16 -40 35 -15 19 -41 42 -59 51 -61 32 -63 40
-28 90 17 25 31 51 31 59 0 7 12 23 26 34 14 11 39 40 54 63 78 118 314 373
480 519 308 271 735 530 1094 663 l68 26 -4 -45 c-2 -30 1 -46 10 -50 9 -3 11
-21 6 -68 -4 -41 -2 -71 5 -85 22 -42 31 -22 31 71 0 81 3 96 20 112 12 10 28
15 41 12 20 -5 20 -3 14 44 -8 58 -20 52 195 110 213 58 487 105 685 119 61 4
118 8 127 9 9 0 19 -3 23 -8z"/>
<path d="M11373 14603 c-7 -2 -13 -12 -13 -21 0 -34 -15 -44 -43 -31 -40 18
-71 5 -91 -40 -15 -33 -16 -47 -7 -89 10 -48 73 -176 92 -188 17 -10 9 -96
-22 -212 -66 -253 -44 -417 70 -518 l36 -32 -1 -103 c-1 -100 -4 -112 -62
-286 -77 -228 -96 -321 -90 -428 9 -142 81 -257 182 -292 38 -13 81 -18 166
-18 133 0 178 15 254 85 40 37 46 48 52 97 8 63 -17 201 -43 242 -11 16 -13
35 -8 65 4 22 8 82 9 131 2 50 10 112 19 140 31 94 19 140 -63 230 -48 53 -52
61 -46 94 3 20 23 70 45 111 50 96 72 173 74 258 2 91 -12 114 -152 252 -192
189 -256 262 -289 328 -18 34 -32 65 -32 67 0 3 9 5 20 5 16 0 19 5 15 28 -2
15 -7 48 -10 74 -7 52 -25 67 -62 51z"/>
<path d="M9203 14248 c-26 -29 -53 -81 -92 -184 -49 -128 -87 -183 -302 -439
-27 -33 -63 -84 -79 -113 -64 -118 -123 -354 -119 -474 1 -32 0 -60 -3 -63 -7
-8 -88 82 -88 98 0 7 7 38 17 68 12 41 16 91 15 212 -1 86 -4 161 -7 166 -3 5
-28 14 -56 21 -28 7 -73 28 -101 46 -27 19 -56 34 -63 34 -7 0 -24 -15 -38
-32 -39 -50 -93 -104 -200 -202 -147 -134 -158 -170 -59 -203 44 -14 58 -23
60 -40 4 -28 -58 -148 -113 -219 -42 -54 -42 -54 -49 -165 -8 -120 -5 -129 42
-129 12 0 25 -7 28 -15 9 -22 -30 -108 -87 -194 l-49 -75 16 -48 16 -48 49 0
c27 0 49 -4 49 -9 0 -5 -22 -25 -50 -45 -27 -20 -50 -42 -50 -49 0 -24 23 -37
65 -37 23 0 46 -5 52 -11 13 -13 12 -19 -35 -119 -19 -41 -43 -98 -54 -127
-18 -50 -18 -52 0 -86 l18 -34 17 28 c9 16 29 34 44 41 15 7 39 20 52 30 13
10 32 18 43 18 20 0 20 3 -8 -111 -8 -31 -14 -78 -14 -104 0 -45 1 -47 24 -41
27 7 56 -1 56 -16 0 -5 -31 -46 -68 -91 -63 -75 -110 -140 -205 -287 -20 -30
-72 -104 -116 -164 -85 -114 -97 -148 -63 -179 10 -10 28 -17 39 -17 19 0 69
47 90 85 5 8 22 18 39 21 36 6 100 67 108 103 8 38 105 211 118 211 8 0 9 -50
4 -177 -4 -98 -11 -486 -16 -863 -8 -669 -8 -685 11 -705 19 -20 33 -20 742
-20 687 0 724 1 751 19 25 16 28 22 23 55 -4 20 -18 106 -32 191 -14 85 -32
254 -40 375 -8 121 -19 279 -25 350 -23 274 -12 650 20 670 4 2 29 -28 55 -67
52 -75 114 -128 149 -128 64 0 89 75 40 121 -43 39 -109 138 -157 234 -77 154
-374 587 -518 755 -92 107 -129 160 -149 208 -23 58 -62 67 -112 24 -18 -15
-45 -33 -60 -40 -16 -6 -28 -16 -28 -22 0 -6 -46 -57 -102 -113 -57 -57 -150
-165 -207 -240 -57 -75 -110 -137 -117 -137 -10 0 -14 15 -13 53 1 28 -2 69
-6 90 -9 44 6 67 41 67 15 0 43 17 69 41 53 49 59 83 20 119 -14 13 -25 30
-25 38 0 8 41 57 91 109 52 55 101 117 116 148 25 51 26 56 13 109 -14 58 -15
51 32 204 5 17 14 32 19 32 15 0 40 -60 34 -80 -4 -13 0 -20 14 -25 11 -3 32
-20 46 -37 44 -53 118 -108 159 -119 22 -6 63 -8 93 -4 43 5 53 10 53 25 0 28
28 51 54 44 18 -4 28 1 45 25 40 56 71 139 71 191 0 57 14 100 33 100 9 0 23
41 43 120 16 66 34 120 40 120 6 0 21 -11 33 -24 12 -13 36 -26 52 -30 16 -3
32 -12 35 -21 6 -14 -74 -142 -103 -167 -11 -9 -10 -15 8 -34 21 -23 22 -27
11 -121 l-11 -98 36 -37 c33 -34 35 -40 25 -63 -7 -15 -27 -44 -44 -66 l-32
-40 35 -34 c20 -18 44 -52 54 -74 14 -33 26 -44 64 -57 25 -10 52 -23 60 -30
16 -15 6 -34 -18 -34 -11 0 -29 -9 -42 -20 l-24 -19 57 -1 c31 0 59 -3 61 -7
13 -22 -31 -370 -55 -432 -6 -17 -4 -28 7 -41 10 -11 15 -37 15 -82 0 -67 16
-98 52 -98 23 0 58 44 58 73 0 15 4 27 10 27 9 0 30 -61 30 -87 0 -18 39 -41
60 -36 28 7 30 36 14 157 -15 120 -34 382 -34 487 l0 65 75 34 c90 41 102 52
156 155 41 78 41 82 36 155 -5 59 -2 86 14 129 15 44 17 61 8 90 -9 29 -7 45
6 81 20 51 20 57 9 160 -6 66 -11 78 -39 105 -32 31 -87 156 -101 232 -4 21
-15 54 -25 73 -9 19 -20 54 -24 77 -3 22 -12 49 -19 59 -12 16 -16 14 -41 -24
-29 -44 -67 -62 -94 -45 -26 16 -40 53 -31 78 11 30 5 35 -46 35 -52 0 -51 13
6 53 45 32 52 57 17 57 -13 0 -50 9 -82 20 -32 11 -71 20 -87 20 -25 0 -28 3
-28 33 0 39 -23 75 -56 87 -20 8 -24 16 -24 52 -1 24 -9 68 -20 98 -12 36 -17
69 -13 96 5 40 -17 104 -35 104 -5 0 -18 18 -31 40 -19 34 -27 40 -55 40 -21
0 -40 -8 -53 -22z m233 -843 c11 -28 -54 -195 -67 -173 -14 21 -10 116 5 153
16 37 51 49 62 20z m-1194 -1722 c8 -10 6 -18 -7 -33 -10 -11 -22 -20 -27 -20
-10 0 -11 184 0 194 4 4 10 -23 15 -60 4 -37 12 -73 19 -81z"/>
<path d="M12555 13679 c-22 -16 -58 -49 -80 -73 -22 -24 -54 -52 -71 -62 -32
-20 -123 -86 -225 -165 -108 -85 -133 -144 -123 -292 6 -80 4 -105 -15 -165
-13 -43 -21 -98 -21 -144 -1 -44 -8 -94 -19 -125 -10 -29 -15 -56 -12 -61 3
-6 35 -22 71 -36 36 -15 75 -38 87 -51 27 -31 20 -60 -43 -180 -24 -47 -44
-99 -44 -116 0 -61 51 -119 148 -168 59 -30 63 -47 21 -84 -71 -63 -84 -105
-48 -151 36 -45 76 -60 166 -59 l82 0 -6 -143 c-4 -105 -3 -147 6 -158 8 -10
13 -67 14 -174 2 -142 4 -162 21 -181 42 -46 96 -11 96 61 0 37 5 45 45 73 19
12 20 26 23 225 3 188 5 212 20 217 38 13 159 65 187 80 42 23 93 82 106 123
7 19 28 64 48 100 21 36 45 84 55 107 18 42 18 43 -4 98 -19 48 -22 66 -16
133 8 97 -7 152 -70 246 -61 93 -74 128 -74 195 0 31 -9 96 -20 145 -11 50
-20 99 -20 110 0 11 -21 65 -47 120 l-47 101 -7 160 c-7 178 -26 250 -77 291
-45 35 -63 36 -107 3z"/>
<path d="M7787 9876 c-93 -57 -137 -130 -137 -227 0 -154 170 -343 455 -507
209 -119 394 -190 580 -221 347 -59 477 -68 1065 -78 790 -12 1403 35 1960
151 704 146 1044 248 1236 371 115 74 126 173 26 224 -80 40 -339 82 -411 66
-36 -8 -40 -21 -8 -28 223 -51 376 -100 392 -127 13 -20 -27 -50 -139 -104
-169 -82 -388 -147 -811 -241 -514 -115 -918 -175 -1325 -195 -113 -6 -281
-15 -375 -20 -434 -26 -1224 3 -1542 55 -196 32 -315 70 -488 156 -225 112
-320 175 -415 276 -67 70 -91 104 -113 161 -30 74 -15 146 41 206 35 37 109
69 140 61 22 -5 24 -10 19 -51 -2 -24 -3 -44 -1 -44 9 0 34 61 34 83 0 39 -30
57 -91 57 -39 -1 -65 -7 -92 -24z"/>
</g>
</svg>
