<?xml version="1.0" standalone="no"?>
<!DOCTYPE svg PUBLIC "-//W3C//DTD SVG 20010904//EN"
 "http://www.w3.org/TR/2001/REC-SVG-20010904/DTD/svg10.dtd">
<svg version="1.0" xmlns="http://www.w3.org/2000/svg"
 width="2112.000000pt" height="2112.000000pt" viewBox="0 0 2112.000000 2112.000000"
 preserveAspectRatio="xMidYMid meet">

<g transform="translate(0.000000,2112.000000) scale(0.100000,-0.100000)"
fill="#000000" stroke="none">
<path d="M9975 15673 c-16 -2 -64 -13 -106 -24 -45 -11 -90 -16 -108 -13 -41
8 -46 -7 -26 -81 18 -71 19 -149 3 -302 -10 -101 -10 -115 4 -130 21 -20 64
-10 73 18 4 11 10 50 13 87 l7 67 57 7 c103 13 157 48 128 83 -10 12 -29 14
-95 9 -45 -4 -85 -3 -88 2 -3 5 -7 43 -8 84 l-4 75 90 18 c104 21 135 38 135
71 0 21 -20 39 -38 35 -4 -1 -20 -4 -37 -6z"/>
<path d="M11085 15600 c-4 -7 -9 -105 -12 -217 -3 -183 -2 -208 13 -224 22
-24 35 -24 87 2 83 41 163 102 200 151 32 44 37 57 37 107 0 88 -34 132 -130
166 -62 22 -185 31 -195 15z m194 -98 c63 -30 67 -92 9 -158 -34 -39 -99 -84
-121 -84 -10 0 -14 31 -15 136 l-3 137 47 -7 c26 -3 64 -14 83 -24z"/>
<path d="M10421 15565 c-38 -43 -70 -145 -72 -230 -2 -72 1 -69 -86 -80 l-53
-7 0 75 c0 71 -15 210 -26 250 -3 9 -11 17 -18 17 -33 0 -39 -30 -43 -219 -3
-167 -2 -191 13 -206 22 -21 83 -14 168 20 l59 24 28 -24 c38 -31 76 -38 159
-30 64 6 71 10 96 42 l26 34 15 -21 c48 -68 185 -65 277 5 56 42 76 90 76 177
-1 97 -24 149 -79 177 -48 25 -129 28 -171 6 -30 -16 -80 -74 -80 -93 0 -26
-16 -10 -33 33 -27 63 -66 85 -155 85 -67 0 -71 -1 -101 -35z m165 -28 c31
-13 45 -51 51 -133 8 -103 1 -121 -53 -144 -98 -42 -154 -17 -154 68 0 42 32
192 46 214 7 11 82 7 110 -5z m358 -32 c23 -22 26 -31 26 -95 0 -43 -6 -82
-15 -99 -24 -48 -127 -77 -176 -51 -23 13 -26 88 -6 167 22 85 39 103 96 103
37 0 54 -6 75 -25z"/>
<path d="M10415 14990 c-536 -29 -1047 -165 -1525 -404 -380 -190 -699 -423
-995 -727 -491 -504 -801 -1087 -940 -1768 -80 -395 -82 -871 -4 -1271 237
-1217 1109 -2200 2318 -2614 441 -151 996 -227 1440 -197 437 30 827 119 1227
281 215 88 518 246 559 294 11 12 63 51 115 86 795 529 1350 1347 1524 2245
50 261 60 363 60 650 0 287 -8 380 -60 649 -259 1346 -1328 2396 -2747 2700
-277 59 -685 91 -972 76z m545 -85 c947 -94 1789 -530 2397 -1240 418 -489
706 -1166 763 -1795 15 -169 12 -508 -5 -676 -66 -623 -324 -1238 -739 -1759
-209 -262 -687 -686 -876 -776 -25 -12 -70 -34 -100 -50 -166 -88 -340 -173
-436 -214 -627 -269 -1348 -360 -2039 -259 -728 107 -1439 458 -1961 967 -68
66 -85 78 -104 72 -18 -6 -21 -4 -16 12 4 14 -7 31 -40 63 -25 25 -53 58 -61
74 -8 16 -46 68 -83 115 -455 581 -700 1284 -700 2011 0 479 112 973 319 1414
450 956 1335 1672 2407 1946 142 36 439 87 579 99 164 14 537 12 695 -4z"/>
<path d="M9608 14140 c-82 -15 -161 -40 -219 -70 -53 -28 -58 -29 -160 -23
-90 4 -111 2 -160 -16 -57 -22 -176 -119 -217 -176 -11 -16 -41 -59 -66 -95
-55 -79 -77 -157 -53 -194 9 -13 32 -31 51 -40 20 -9 36 -21 36 -25 0 -5 -17
-16 -37 -25 -225 -100 -330 -198 -379 -351 -36 -114 -20 -181 55 -230 73 -49
297 -54 461 -10 67 18 70 18 70 3 0 -24 55 -81 95 -99 84 -37 361 -47 494 -18
52 12 147 54 168 74 20 20 39 19 72 -6 21 -15 61 -26 140 -37 104 -15 119 -15
238 2 190 27 285 83 343 204 14 28 30 53 36 56 6 2 31 0 55 -6 64 -15 235 -15
299 1 82 19 201 84 314 169 122 93 225 179 249 208 10 13 36 27 61 32 63 13
132 57 162 101 51 78 41 201 -23 279 -39 47 -162 113 -284 151 -154 49 -416
49 -511 0 l-41 -21 -27 20 c-104 77 -327 142 -486 142 -70 0 -214 -28 -255
-50 -9 -5 -19 -6 -23 -3 -4 4 -41 17 -84 30 -85 27 -288 39 -374 23z m277 -64
c33 -8 88 -25 122 -37 57 -22 65 -22 115 -10 29 8 67 21 83 30 51 26 239 21
350 -11 101 -28 221 -83 229 -104 3 -8 0 -25 -6 -39 -17 -38 3 -75 41 -75 35
0 60 22 67 60 8 39 51 59 154 72 156 18 365 -18 503 -88 118 -60 154 -137 121
-256 -7 -25 -93 -75 -141 -83 -33 -5 -54 -18 -95 -60 -50 -50 -164 -140 -273
-216 -85 -59 -159 -98 -221 -114 -72 -20 -238 -21 -309 -2 -74 19 -96 11 -125
-48 -57 -113 -82 -139 -172 -180 -116 -53 -400 -53 -480 0 -53 35 -83 32 -163
-20 -39 -25 -86 -48 -105 -52 -57 -13 -411 -9 -450 5 -40 13 -64 45 -55 71 3
10 26 32 50 50 49 35 56 54 25 71 -28 15 -64 3 -104 -36 -26 -25 -54 -38 -113
-54 -91 -24 -250 -36 -348 -25 -60 6 -73 11 -102 40 -42 42 -43 80 -6 172 21
53 42 83 97 138 68 68 126 105 256 165 89 41 100 49 100 73 0 19 -11 26 -77
47 -52 17 -79 31 -81 42 -6 32 68 165 130 233 51 57 123 121 157 141 63 38
201 51 201 19 0 -6 -7 -26 -16 -43 -8 -18 -14 -42 -12 -54 3 -22 4 -21 18 7
22 44 105 97 139 88 39 -9 81 -42 81 -64 0 -10 7 -19 15 -19 17 0 20 32 5 60
-5 10 -7 32 -4 49 5 23 14 33 38 41 90 29 269 37 361 16z m-410 -56 c3 -5 -3
-10 -15 -10 -12 0 -18 5 -15 10 3 6 10 10 15 10 5 0 12 -4 15 -10z"/>
<path d="M11885 13455 c3 -27 12 -169 20 -315 26 -459 66 -704 118 -732 19 -9
20 -9 11 3 -26 31 -54 231 -90 629 -19 212 -45 419 -56 445 -5 13 -7 3 -3 -30z"/>
<path d="M11725 13398 c2 -18 9 -208 15 -423 6 -214 13 -410 16 -435 9 -85 28
-160 39 -157 14 5 18 74 6 106 -6 14 -15 161 -21 326 -6 165 -18 352 -26 415
-7 63 -14 134 -14 158 0 23 -4 42 -10 42 -5 0 -8 -15 -5 -32z"/>
<path d="M11527 13193 c-3 -15 -8 -38 -12 -51 -6 -17 -4 -22 6 -20 17 4 23
-54 39 -347 18 -330 37 -485 60 -485 13 0 13 97 0 105 -6 3 -10 51 -10 108 -1
149 -35 625 -49 681 -9 39 -27 44 -34 9z"/>
<path d="M11356 13109 c-13 -41 -13 -73 -1 -249 22 -316 47 -479 74 -488 7 -2
11 19 11 71 0 41 3 102 7 137 4 45 3 61 -5 56 -20 -12 -26 17 -39 184 -7 91
-16 192 -19 225 -6 60 -19 91 -28 64z"/>
<path d="M8260 13003 c-1 -21 -8 -114 -16 -208 -9 -93 -18 -221 -21 -282 -4
-103 -3 -115 17 -143 12 -16 25 -30 30 -30 14 0 29 64 17 72 -6 4 -7 67 -3
175 8 187 8 409 0 436 -9 30 -24 18 -24 -20z"/>
<path d="M11167 13005 c-4 -22 -7 -74 -7 -115 0 -92 27 -437 35 -450 15 -24
22 -2 33 111 11 103 11 123 -1 132 -10 8 -18 55 -26 152 -7 77 -16 156 -20
175 l-7 35 -7 -40z"/>
<path d="M11472 12930 c0 -19 2 -27 5 -17 2 9 2 25 0 35 -3 9 -5 1 -5 -18z"/>
<path d="M11008 12920 c-19 -48 -30 -149 -35 -342 -4 -150 -3 -218 4 -218 17
0 21 32 33 255 11 206 11 335 -2 305z"/>
<path d="M10732 12733 c6 -161 27 -268 52 -260 17 6 24 60 9 72 -8 6 -16 60
-23 150 -12 160 -17 195 -32 195 -7 0 -9 -50 -6 -157z"/>
<path d="M10541 12814 c-16 -37 -15 -209 3 -223 10 -9 17 -6 30 13 18 28 21
56 6 56 -6 0 -10 35 -10 84 0 89 -9 112 -29 70z"/>
<path d="M10119 12723 c-6 -21 -15 -43 -20 -49 -8 -9 -33 -113 -46 -186 -6
-34 11 -37 38 -5 12 14 17 31 13 48 -3 14 4 50 15 80 25 67 37 149 23 149 -6
0 -16 -17 -23 -37z"/>
<path d="M10350 12725 c-8 -10 -9 -15 -1 -15 6 0 11 -12 11 -27 0 -45 12 -103
21 -103 14 0 18 34 11 94 -7 62 -20 77 -42 51z"/>
<path d="M8391 12708 c-11 -30 -31 -224 -30 -292 1 -46 2 -43 14 34 22 139 37
271 31 277 -3 3 -10 -5 -15 -19z"/>
<path d="M9606 12634 c-9 -24 -7 -354 2 -354 10 0 22 153 22 283 0 81 -9 109
-24 71z"/>
<path d="M9815 12640 c-10 -16 -30 -269 -21 -277 15 -16 24 24 30 149 7 126 5
151 -9 128z"/>
<path d="M8505 12588 c-2 -7 -9 -79 -14 -159 -19 -253 -12 -338 20 -277 17 32
26 448 10 448 -6 0 -13 -6 -16 -12z"/>
<path d="M9286 12363 c-5 -130 -3 -200 3 -206 6 -6 13 -8 16 -5 12 11 25 177
20 248 -17 224 -30 211 -39 -37z"/>
<path d="M9118 12524 c-10 -17 -19 -549 -10 -563 21 -30 27 24 30 276 3 234
-3 317 -20 287z"/>
<path d="M10299 12507 c-91 -62 -379 -264 -419 -294 -24 -19 -103 -91 -175
-161 -157 -154 -240 -226 -388 -336 -62 -46 -164 -130 -227 -186 -63 -57 -177
-150 -253 -207 -141 -106 -229 -180 -374 -311 -44 -40 -125 -107 -179 -149
-107 -81 -118 -94 -109 -123 9 -27 38 -33 77 -15 53 24 194 131 332 250 70 61
131 111 135 113 4 1 23 -4 43 -12 l36 -15 6 -93 c4 -51 10 -106 13 -121 l5
-29 87 6 c47 4 169 7 271 8 252 2 354 -16 575 -102 139 -54 200 -70 346 -90
218 -30 239 -29 529 44 362 91 487 124 553 147 52 17 97 20 390 25 218 4 353
3 392 -5 33 -5 77 -13 98 -17 l37 -7 0 116 c0 63 4 137 10 164 21 106 27 152
20 163 -4 7 -3 28 3 47 10 33 9 37 -17 58 -33 26 -30 57 3 48 15 -4 21 -1 21
11 0 9 -4 16 -10 16 -5 0 -10 16 -10 35 0 19 3 35 8 35 4 0 57 -28 117 -61
116 -65 179 -95 285 -136 95 -37 388 -133 405 -133 25 0 55 38 55 69 0 40 -32
63 -127 90 -185 53 -366 120 -478 178 -66 35 -223 114 -350 177 -188 94 -253
132 -359 211 -237 176 -340 226 -897 430 -222 82 -331 129 -378 166 -32 25
-61 24 -102 -4z"/>
<path d="M8655 12448 c-24 -72 -46 -448 -26 -448 13 0 19 34 31 165 21 212 24
295 11 295 -6 0 -14 -6 -16 -12z"/>
<path d="M8917 12293 c-11 -266 -7 -413 13 -413 17 0 28 126 26 290 -3 174
-12 280 -26 280 -4 0 -10 -71 -13 -157z"/>
<path d="M11270 10673 c-14 -2 -52 -13 -85 -23 -72 -22 -228 -64 -465 -125
-96 -25 -200 -52 -230 -61 -67 -20 -261 -23 -400 -5 -110 14 -253 51 -348 90
-260 107 -284 112 -585 118 -136 3 -267 2 -292 -1 l-45 -7 0 -217 c0 -119 4
-222 8 -229 5 -8 31 -6 102 10 80 17 130 20 310 21 202 0 221 -1 315 -26 102
-27 199 -61 276 -97 121 -56 363 -115 519 -125 52 -3 142 -2 200 4 106 10 359
68 440 100 25 10 77 30 115 45 62 23 131 56 275 131 63 33 132 44 285 44 104
0 159 -6 256 -26 68 -14 131 -26 139 -27 11 -2 17 26 27 138 7 77 12 160 10
184 l-2 44 -75 20 c-66 18 -112 20 -400 23 -179 1 -336 0 -350 -3z"/>
<path d="M11519 10161 c-20 -4 -96 -37 -170 -74 -127 -63 -313 -138 -389 -157
-19 -4 -89 -22 -155 -38 -225 -57 -444 -64 -660 -20 -112 23 -256 65 -330 98
-135 60 -199 83 -295 108 -96 24 -120 27 -275 25 -140 -1 -191 -6 -289 -26
-65 -14 -122 -29 -126 -34 -4 -4 -5 -106 -2 -225 l5 -218 26 0 c14 1 62 7 106
15 164 30 300 36 455 21 296 -30 778 -87 856 -101 55 -10 148 -15 296 -15 184
0 236 4 360 25 166 29 223 46 328 103 103 55 215 100 279 112 80 15 313 12
410 -5 47 -8 87 -13 89 -10 4 4 33 348 29 351 -12 9 -150 47 -216 59 -84 15
-266 19 -332 6z"/>
<path d="M11574 9620 c-44 -6 -105 -30 -218 -85 -184 -88 -215 -98 -441 -130
-296 -43 -402 -38 -980 46 -77 11 -189 27 -250 35 -60 7 -154 21 -207 29 -205
33 -336 30 -571 -9 l-72 -12 -8 -215 c-5 -118 -5 -229 -2 -248 3 -18 18 -44
31 -58 24 -24 29 -25 92 -17 37 4 274 8 527 9 389 1 496 5 690 24 127 12 237
24 245 27 8 3 169 9 358 14 188 5 431 16 540 24 108 8 273 20 366 26 93 6 189
15 214 21 55 12 131 65 138 96 4 13 1 58 -5 101 -9 56 -9 106 -2 182 5 57 8
106 6 108 -26 27 -335 48 -451 32z"/>
</g>
</svg>
