<?xml version="1.0" standalone="yes"?>
<svg xmlns="http://www.w3.org/2000/svg" width="2112" height="2112">
<path style="fill:#040403; stroke:none;" d="M0 0L0 2112L2112 2112L2112 0L0 0z"/>
<path style="fill:#8c8989; stroke:none;" d="M1114 520L1115 521L1114 520z"/>
<path style="fill:#8e5c54; stroke:none;" d="M1115.02 520.836C1107.35 523.204 1109.96 535.961 1117.98 533.917C1126.53 531.74 1123.72 518.15 1115.02 520.836z"/>
<path style="fill:#a1a12e; stroke:none;" d="M1112 521L1113 522L1112 521z"/>
<path style="fill:#8c8989; stroke:none;" d="M1111 522L1112 523L1111 522M1123 528L1124 529L1123 528M1110 530L1111 531L1110 530M1064 531L1065 532L1064 531z"/>
<path style="fill:#8e5c54; stroke:none;" d="M1049 556L1048 556C1047.43 550.827 1044.62 547.007 1040.7 543.641C1038.39 541.659 1035.81 540.094 1033 538.927C1029.24 537.365 1023.19 534.646 1019.32 537.18C1012.84 541.418 1013.03 565.897 1013 573C1012.97 579.156 1012.72 584.438 1020 585C1016.57 597.889 1032.68 595.774 1039.42 590.812C1049.55 583.361 1050 573.457 1050 562C1056.04 568.598 1070.8 572.935 1070 583L1067 583C1064.97 576.062 1050.81 576.525 1049.22 584.005C1044.99 603.89 1075.93 595.334 1083 589C1088.32 599.134 1104.97 591.591 1112 587C1113.42 592.418 1120.98 599.304 1124.4 590.941C1128.66 580.514 1128.43 562.557 1126.54 551.576C1125.86 547.674 1123.32 537.822 1117.28 541.083C1113.45 543.147 1114.12 548.741 1114.54 552.286C1115.2 557.787 1116.18 577.77 1110.68 580.882C1107.42 582.729 1100.73 580.077 1097 580C1097.46 568.66 1098.41 557.435 1097.95 546.039C1097.78 541.845 1095.76 535.736 1090.14 537.913C1086.53 539.314 1086.32 543.738 1085.95 547C1084.96 555.635 1084.59 564.457 1083 573C1079.4 565.007 1063.71 559.028 1063.53 551C1063.18 534.661 1087.53 555.703 1080.3 539.015C1075.5 527.964 1059.84 530.658 1053.3 538.188C1048.98 543.166 1049 549.77 1049 556z"/>
<path style="fill:#8c8989; stroke:none;" d="M1068 531L1069 532L1068 531M1122 531L1123 532L1122 531M1121 532L1122 533L1121 532z"/>
<path style="fill:#8e5c54; stroke:none;" d="M970 590C978.462 604.809 982 580.649 982 575C985.36 578.638 993.176 591.094 998.04 591.454C1004.91 591.962 1004.8 583.523 1005.09 579.001C1005.81 567.507 1009.13 548.586 1002.43 538.318C1000.03 534.637 995.037 536.01 994.228 540.059C992.849 546.971 992.003 557.245 994 564C987.856 556.6 989.386 540.848 979.672 536.105C974.25 533.458 970.97 539.442 970.368 544C968.81 555.792 970 569.94 970 582C958.386 571.962 957.488 560.961 953.403 547C952.131 542.655 949.323 534.991 944 534.466C935.485 533.626 935.349 552.517 934.196 558C930.438 575.868 925.171 581.566 907 583C906.712 576.297 906.032 569.743 905.999 563C905.98 558.946 905.408 555.019 904.95 551C904.503 547.073 897.97 525.646 892.746 538.11C890.949 542.396 893.186 548.579 893.714 553C894.895 562.869 888.17 588.659 896.394 595.258C902.924 600.497 917.679 595.346 925 594.3C928.265 593.834 931.94 594.451 934.942 592.821C939.26 590.476 939.489 585.572 945.005 585.049C954.467 584.151 960.021 592.339 970 590z"/>
<path style="fill:#8c8989; stroke:none;" d="M1115 534L1116 535L1115 534M1117 534L1118 535L1117 534z"/>
<path style="fill:#a1a12e; stroke:none;" d="M947 535L948 536L947 535z"/>
<path style="fill:#8c8989; stroke:none;" d="M1019 536L1020 537L1019 536M994 537L995 538L994 537M1052 538L1053 539L1052 538M1202 538L1203 539L1202 538z"/>
<path style="fill:#8e5c54; stroke:none;" d="M1172 568L1171 568C1170.34 553.711 1160.63 546.759 1148 542.239C1143.56 540.651 1132.6 536.199 1131.45 544.044C1130.81 548.351 1133.76 553.529 1133.96 558C1134.44 568.741 1132.86 579.291 1133.01 589.996C1133.06 593.593 1132.34 599.627 1134.77 602.567C1138.2 606.726 1145.12 604.779 1149 602.521C1158.85 596.787 1168.29 588.391 1171 577L1172 577C1171.06 582.083 1168.67 593.372 1173.43 597.116C1177.2 600.08 1182.12 597.598 1186 596.376C1194.31 593.758 1207.42 592.233 1209 582L1185 583L1199 566L1186 565L1186 552C1191 552 1196.01 552.11 1201 551.985C1205.15 551.882 1228.91 548.04 1219.55 539.742C1213.52 534.396 1193.7 538.859 1186 539.05C1182.78 539.13 1178.06 538.346 1175.43 540.606C1169.75 545.491 1173.65 561.052 1172 568z"/>
<path style="fill:#8c8989; stroke:none;" d="M1218 538L1219 539L1218 538M1139 539L1140 540L1139 539M1182 539L1183 540L1182 539M1132 540L1133 541L1132 540M1174 540L1175 541L1174 540M984 541L985 542L984 541M1221 541L1222 542L1221 541M1016 542L1017 543L1016 542M1086 542L1087 543L1086 542z"/>
<path style="fill:#a1a12e; stroke:none;" d="M1068 543L1069 544L1068 543z"/>
<path style="fill:#8c8989; stroke:none;" d="M1073 543L1074 544L1073 543M1114 543L1115 544L1114 543z"/>
<path style="fill:#a1a12e; stroke:none;" d="M1151 543L1152 544L1151 543z"/>
<path style="fill:#8c8989; stroke:none;" d="M936 544L937 545L936 544z"/>
<path style="fill:#a1a12e; stroke:none;" d="M1221 544L1222 545L1221 544z"/>
<path style="fill:#8c8989; stroke:none;" d="M1075 545L1076 546L1075 545z"/>
<path style="fill:#a1a12e; stroke:none;" d="M1217 548L1218 549L1217 548z"/>
<path style="fill:#040403; stroke:none;" d="M1027 549L1024 581C1043.11 580.785 1038.28 556.781 1027 549z"/>
<path style="fill:#8c8989; stroke:none;" d="M1063 549L1064 550L1063 549z"/>
<path style="fill:#a1a12e; stroke:none;" d="M1063 550L1063 554L1064 554L1063 550z"/>
<path style="fill:#8c8989; stroke:none;" d="M1126 550L1127 551L1126 550M954 551L955 552L954 551M1005 553L1006 554L1005 553M1133 553L1134 554L1133 553M1048 555L1049 556L1048 555z"/>
<path style="fill:#040403; stroke:none;" d="M1146 555L1147 585C1164.5 580.422 1159.74 560.529 1146 555z"/>
<path style="fill:#8c8989; stroke:none;" d="M991 559L992 560L991 559M1026 559L1027 560L1026 559M1084 560L1085 561L1084 560M992 562L993 563L992 562M957 563L958 564L957 563z"/>
<path style="fill:#040403; stroke:none;" d="M992.667 563.333L993.333 563.667L992.667 563.333z"/>
<path style="fill:#8c8989; stroke:none;" d="M1192.67 563.333L1193.33 563.667L1192.67 563.333M932 564L933 565L932 564M1172.33 565.667L1172.67 566.333L1172.33 565.667M1055 567L1056 568L1055 567z"/>
<path style="fill:#a1a12e; stroke:none;" d="M1171 567L1172 568L1171 567z"/>
<path style="fill:#8c8989; stroke:none;" d="M931 568L932 569L931 568M1058 569L1059 570L1058 569M1082 571L1083 572L1082 571M943 572L944 573L943 572z"/>
<path style="fill:#040403; stroke:none;" d="M943 574L946 574L945 572L943 574z"/>
<path style="fill:#8c8989; stroke:none;" d="M960 572L961 573L960 572M1025 572L1026 573L1025 572z"/>
<path style="fill:#040403; stroke:none;" d="M1082 572L1083 573L1082 572z"/>
<path style="fill:#8c8989; stroke:none;" d="M1113 573L1114 574L1113 573M982 575L982 580L983 580L982 575M1005 575L1005 578L1006 578L1005 575M963 576L964 577L963 576z"/>
<path style="fill:#a1a12e; stroke:none;" d="M984 577L985 578L984 577z"/>
<path style="fill:#040403; stroke:none;" d="M1171 577L1172 578L1171 577z"/>
<path style="fill:#8c8989; stroke:none;" d="M1171 578L1172 579L1171 578M1024 579L1025 580L1024 579M1048 579L1049 580L1048 579M1070 579L1071 580L1070 579M1126 579L1127 580L1126 579M923 580L924 581L923 580z"/>
<path style="fill:#a1a12e; stroke:none;" d="M982.333 580.667L982.667 581.333L982.333 580.667z"/>
<path style="fill:#8c8989; stroke:none;" d="M1050 580L1051 581L1050 580M1103 580L1104 581L1103 580M1112 580L1113 581L1112 580M1185 580L1186 581L1185 580z"/>
<path style="fill:#a1a12e; stroke:none;" d="M910 582L911 583L910 582z"/>
<path style="fill:#8c8989; stroke:none;" d="M911 582L912 583L911 582M1187 582L1188 583L1187 582z"/>
<path style="fill:#a1a12e; stroke:none;" d="M1046 583L1047 584L1046 583z"/>
<path style="fill:#8c8989; stroke:none;" d="M950 584L951 585L950 584M1125 584L1126 585L1125 584M1168 584L1169 585L1168 584M992 585L993 586L992 585M1019 585L1020 586L1019 585M1147 585L1148 586L1147 585M1166 587L1167 588L1166 587M1170.33 588.667L1170.67 589.333L1170.33 588.667M981 589L982 590L981 589M1108 589L1109 590L1108 589M1112 589L1113 590L1112 589M1002 590L1003 591L1002 590z"/>
<path style="fill:#a1a12e; stroke:none;" d="M1170 590L1171 591L1170 590M964 591L965 592L964 591z"/>
<path style="fill:#8c8989; stroke:none;" d="M1050 591L1051 592L1050 591M936 592L937 593L936 592z"/>
<path style="fill:#01ab01; stroke:none;" d="M1016.33 592.667L1016.67 593.333L1016.33 592.667z"/>
<path style="fill:#8c8989; stroke:none;" d="M1113 592L1114 593L1113 592M1197 592L1198 593L1197 592M894 593L895 594L894 593z"/>
<path style="fill:#a1a12e; stroke:none;" d="M1015 593L1016 594L1015 593z"/>
<path style="fill:#8c8989; stroke:none;" d="M923 594L924 595L923 594M931 594L932 595L931 594M974 594L975 595L974 594M976 594L977 595L976 594M919 595L920 596L919 595M1133 595L1134 596L1133 595M1171 595L1172 596L1171 595M912 596L913 597L912 596M1059 596L1060 597L1059 596M1061 596L1062 597L1061 596M1069 596L1070 597L1069 596z"/>
<path style="fill:#a1a12e; stroke:none;" d="M1184 596L1185 597L1184 596z"/>
<path style="fill:#8c8989; stroke:none;" d="M1154 598L1155 599L1154 598z"/>
<path style="fill:#a1a12e; stroke:none;" d="M1180 598L1181 599L1180 598z"/>
<path style="fill:#01ab01; stroke:none;" d="M1089 615L1090 616L1089 615z"/>
<path style="fill:#8e5c54; stroke:none;" d="M1089.67 616.333L1090.33 616.667L1089.67 616.333M1091 617L1091 618L1098 618L1091 617M989.667 621.333L990.333 621.667L989.667 621.333M981 622L981 623L984 623L981 622z"/>
<path style="fill:#a1a12e; stroke:none;" d="M1121 735L1122 736L1121 735z"/>
<path style="fill:#8e5c54; stroke:none;" d="M1122.21 735.742C1115.33 738.844 1117.85 747.354 1117.7 753C1117.41 763.311 1109.38 799.988 1133.96 789.145C1145.58 784.022 1142.9 772.593 1144.47 763C1145.4 757.264 1147.43 750.725 1144.99 745.043C1141.88 737.793 1129.6 732.411 1122.21 735.742z"/>
<path style="fill:#a1a12e; stroke:none;" d="M1319 739L1320 740L1319 739z"/>
<path style="fill:#8e5c54; stroke:none;" d="M1274 806C1272.41 803.506 1268.61 801.749 1267.9 798.867C1266.92 794.869 1270.23 789.632 1271.56 786C1274.49 778.035 1280.89 762.342 1279.21 754.044C1278.06 748.315 1269.82 746.68 1265 746.804C1253.61 747.097 1243.17 749.405 1232 751.629C1226.94 752.637 1220.45 752.676 1217 757C1207.76 756.197 1181.5 768.138 1184.45 779.91C1186.29 787.281 1199.77 786.128 1198.47 793.019C1197.62 797.534 1194.83 801.22 1192.43 805C1183.64 818.843 1161.64 844.166 1184 854.904C1187.07 856.379 1189.63 857.214 1193 857C1200.14 866.377 1224.72 859.375 1227.33 848.17C1228.55 842.935 1224.31 831.317 1227.64 827.739C1233.55 821.394 1254.93 822.022 1263 822C1255.63 830.848 1253.25 843.62 1247 853C1237.89 866.667 1227.72 882.842 1223 897C1222.9 897.313 1219.24 899.642 1219 900C1214.69 906.464 1213.58 916.456 1209 923C1201.99 933.01 1192.94 945.175 1189 957C1184.61 970.161 1183.07 987.821 1179 999C1176.83 1004.95 1180.65 1011.64 1178 1018C1172.93 1030.17 1155.97 1040.91 1147 1051C1139.82 1059.07 1138.28 1071.13 1141 1082C1142.25 1087 1147.55 1090.81 1146 1097C1144.8 1101.81 1139.37 1114.84 1136 1114L1126 1121L1094 1118C1096.62 1112.78 1101.08 1103.98 1099.55 1098.02C1097.94 1091.74 1092.11 1092.69 1087.17 1091.55C1073.79 1088.44 1057.34 1104.53 1057 1118C1050.15 1119.55 1031.86 1121.14 1032 1130C1038.86 1128.07 1048.01 1126.36 1054.96 1128.88C1059.9 1130.66 1062.64 1135.52 1068 1136C1076.53 1149.56 1085.25 1132.15 1092.05 1130.32C1099.22 1128.38 1109.72 1131.08 1117 1132C1110.05 1147.47 1087.21 1149.23 1081 1164C1089.82 1169.01 1096.51 1166.91 1106 1167.03C1113.98 1167.14 1119.63 1169.21 1128 1168C1137.37 1166.64 1148.71 1163.74 1154 1173L1171 1170C1174.63 1167.14 1179.52 1167.78 1183.91 1166.57C1200.94 1161.88 1220.81 1161.91 1238 1165.57C1243.84 1166.81 1251.2 1166.22 1256 1170L1260 1169C1260.62 1172.73 1273.45 1171.01 1277 1171C1290.13 1170.97 1302.46 1164.49 1316 1163.98C1320.54 1163.81 1326.56 1162.26 1330 1166C1342.13 1160.65 1340.62 1145.99 1343.9 1135C1350.83 1111.8 1354.7 1086.7 1359.51 1063C1361.69 1052.27 1366.09 1036.65 1364 1026L1369 1006.39L1374 945L1372 945C1374.3 931.345 1369.36 914.472 1366.8 901C1360.91 869.945 1354.77 838.63 1343.46 809C1339.06 797.464 1335.68 779.933 1327 771L1331 770L1331 765L1322 758L1325 758C1327.28 752.731 1329.84 740.726 1320.96 739.607C1314.06 738.738 1310.15 744.881 1304.95 747.89C1301.51 749.88 1297.43 749.848 1294.43 752.79C1290.94 756.217 1292.02 762.011 1292.29 766.424C1292.82 775.072 1296.57 793.333 1290.26 800.571C1287.17 804.123 1278.47 804.662 1274 806z"/>
<path style="fill:#8c8989; stroke:none;" d="M1314 740L1315 741L1314 740M1117 741L1118 742L1117 741M1312 741L1313 742L1312 741z"/>
<path style="fill:#a1a12e; stroke:none;" d="M1310 743L1311 744L1310 743M1145 745L1146 746L1145 745M1258 746L1259 747L1258 746z"/>
<path style="fill:#8c8989; stroke:none;" d="M1259 746L1259 747L1267 747L1259 746M1307 746L1308 747L1307 746M1306 747L1307 748L1306 747M1246 748L1247 749L1246 748M1249 748L1250 749L1249 748M1273 748L1274 749L1273 748M1240.67 749.333L1241.33 749.667L1240.67 749.333M1301 749L1302 750L1301 749M1117 750L1118 751L1117 750M1235 750L1236 751L1235 750z"/>
<path style="fill:#a1a12e; stroke:none;" d="M1297 750L1298 751L1297 750z"/>
<path style="fill:#8c8989; stroke:none;" d="M1327.33 750.667L1327.67 751.333L1327.33 750.667M1233 751L1234 752L1233 751z"/>
<path style="fill:#a1a12e; stroke:none;" d="M1279 752L1280 753L1279 752z"/>
<path style="fill:#8c8989; stroke:none;" d="M1294 752L1295 753L1294 752z"/>
<path style="fill:#a1a12e; stroke:none;" d="M1327 752L1328 753L1327 752z"/>
<path style="fill:#8c8989; stroke:none;" d="M1222 753L1223 754L1222 753M1279 753L1280 754L1279 753M1219.67 754.333L1220.33 754.667L1219.67 754.333M1216 756L1217 757L1216 756M1325 756L1326 757L1325 756M1212 757L1213 758L1212 757M1279 757L1278 759L1279 757M1323 757L1324 758L1323 757M1145.33 758.667L1145.67 759.333L1145.33 758.667z"/>
<path style="fill:#a1a12e; stroke:none;" d="M1279 758L1280 759L1279 758z"/>
<path style="fill:#8c8989; stroke:none;" d="M1322 758L1323 759L1322 758M1116.33 759.667L1116.67 760.333L1116.33 759.667M1209 759L1210 760L1209 759z"/>
<path style="fill:#a1a12e; stroke:none;" d="M1278 759L1279 760L1278 759M1204 760L1205 761L1204 760z"/>
<path style="fill:#8c8989; stroke:none;" d="M1205 760L1206 761L1205 760z"/>
<path style="fill:#a1a12e; stroke:none;" d="M1277 760L1278 761L1277 760z"/>
<path style="fill:#8c8989; stroke:none;" d="M1202 761L1203 762L1202 761M1144 762L1145 763L1144 762z"/>
<path style="fill:#a1a12e; stroke:none;" d="M1115.33 763.667L1115.67 764.333L1115.33 763.667M1326 764L1327 765L1326 764z"/>
<path style="fill:#8c8989; stroke:none;" d="M1292 765L1293 766L1292 765M1192 766L1193 767L1192 766M1292.33 767.667L1292.67 768.333L1292.33 767.667M1190 768L1191 769L1190 768z"/>
<path style="fill:#a1a12e; stroke:none;" d="M1276 768L1277 769L1276 768z"/>
<path style="fill:#8c8989; stroke:none;" d="M1144 769L1145 770L1144 769z"/>
<path style="fill:#a1a12e; stroke:none;" d="M1188 769L1189 770L1188 769z"/>
<path style="fill:#8c8989; stroke:none;" d="M1189 769L1190 770L1189 769M1276 769L1277 770L1276 769M1187 770L1188 771L1187 770M1327 772L1330 770L1327 772z"/>
<path style="fill:#a1a12e; stroke:none;" d="M1114.33 771.667L1114.67 772.333L1114.33 771.667z"/>
<path style="fill:#8c8989; stroke:none;" d="M1185 772L1186 773L1185 772M1144 773L1145 774L1144 773M1274 776L1275 777L1274 776z"/>
<path style="fill:#a1a12e; stroke:none;" d="M1330 776L1331 777L1330 776z"/>
<path style="fill:#8c8989; stroke:none;" d="M1293.33 777.667L1293.67 778.333L1293.33 777.667z"/>
<path style="fill:#a1a12e; stroke:none;" d="M1274 778L1275 779L1274 778M1115 779L1116 780L1115 779M1273 779L1274 780L1273 779M1141 781L1142 782L1141 781z"/>
<path style="fill:#8c8989; stroke:none;" d="M1116 782L1117 783L1116 782M1293 782L1294 783L1293 782M1185 783L1185 784L1187 786L1188 786L1185 783M1272 783L1273 784L1272 783z"/>
<path style="fill:#a1a12e; stroke:none;" d="M1333 783L1334 784L1333 783z"/>
<path style="fill:#8c8989; stroke:none;" d="M1117 784L1119 786L1119 784L1117 784M1139 784L1140 785L1139 784z"/>
<path style="fill:#a1a12e; stroke:none;" d="M1186 784L1187 785L1186 784z"/>
<path style="fill:#8c8989; stroke:none;" d="M1138 785L1139 786L1138 785z"/>
<path style="fill:#a1a12e; stroke:none;" d="M1189 786L1190 787L1189 786M1193 787L1194 788L1193 787z"/>
<path style="fill:#8c8989; stroke:none;" d="M1199 787L1200 788L1199 787z"/>
<path style="fill:#a1a12e; stroke:none;" d="M1120 788L1121 789L1120 788M1198 788L1199 789L1198 788z"/>
<path style="fill:#8c8989; stroke:none;" d="M1270 788L1271 789L1270 788M1133 789L1134 790L1133 789M1126 790L1127 791L1126 790M1129 790L1130 791L1129 790z"/>
<path style="fill:#a1a12e; stroke:none;" d="M1130 790L1131 791L1130 790z"/>
<path style="fill:#8c8989; stroke:none;" d="M1199.33 790.667L1199.67 791.333L1199.33 790.667M1122 792L1121 794L1122 792z"/>
<path style="fill:#8e5c54; stroke:none;" d="M1120 793L1086.84 826.911L1080 838C1073.59 841.33 1065.23 854.379 1066.82 861.961C1067.59 865.662 1073.16 868.655 1072.31 872.463C1070.1 882.335 1057.93 890.813 1058 901L1055 902C1054.73 904.704 1053.52 907.288 1053.41 910.003C1052.7 928.646 1073.03 910.09 1077.74 911.458C1080.85 912.364 1082.1 917.604 1084.26 919.772C1087.94 923.462 1094.17 924.383 1099.18 923.579C1111.91 921.539 1109.7 907.567 1114.56 899.123C1118.12 892.917 1129.54 893.382 1134.96 888.671C1144.45 880.412 1137.06 867.136 1151 863L1150 861C1158.7 861 1172.86 847.897 1162 840C1158.36 837.354 1151.65 840.189 1148 838C1146.48 837.088 1144.83 830.501 1145 829C1145.79 821.906 1159.58 819.469 1158 810C1156.51 801.053 1138.19 802.259 1139 799L1120 793z"/>
<path style="fill:#8c8989; stroke:none;" d="M1292 794L1293 795L1292 794M1118 796L1119 797L1118 796M1197 796L1198 797L1197 796M1116 797L1117 798L1116 797z"/>
<path style="fill:#a1a12e; stroke:none;" d="M1267 797L1268 798L1267 797z"/>
<path style="fill:#8c8989; stroke:none;" d="M1115 798L1116 799L1115 798M1137 799L1138 800L1137 799M1196 799L1197 800L1196 799M1339 799L1339 801L1341 801L1339 799M1138 800L1139 801L1138 800M1195 800L1196 801L1195 800z"/>
<path style="fill:#a1a12e; stroke:none;" d="M1194 801L1195 802L1194 801M1290 801L1291 802L1290 801z"/>
<path style="fill:#8c8989; stroke:none;" d="M1110 802L1111 803L1110 802M1271 802L1272 803L1271 802z"/>
<path style="fill:#a1a12e; stroke:none;" d="M1108 803L1107 805L1108 803M1152 803L1153 804L1152 803z"/>
<path style="fill:#8c8989; stroke:none;" d="M1193 803L1194 804L1193 803M1282.67 803.333L1283.33 803.667L1282.67 803.333M1108 804L1109 805L1108 804M1153 804L1154 805L1153 804M1273 804L1274 805L1273 804M1279 804L1280 805L1279 804M1034 805L1035 806L1034 805z"/>
<path style="fill:#8e5c54; stroke:none;" d="M1032 809L1026 810C1026.41 820.191 1012.88 831.55 1016.88 840.981C1018.96 845.87 1025.15 845.471 1028.91 848.023C1032.7 850.599 1032.54 855.968 1037.06 857.745C1048.35 862.178 1056.57 843.435 1057.19 835C1057.66 828.669 1058.61 814.359 1053.66 809.741C1050.01 806.331 1032.92 802.028 1032 809z"/>
<path style="fill:#8c8989; stroke:none;" d="M1037 805L1038 806L1037 805z"/>
<path style="fill:#a1a12e; stroke:none;" d="M1106 805L1107 806L1106 805z"/>
<path style="fill:#8c8989; stroke:none;" d="M1154 805L1155 806L1154 805M1274 805L1275 806L1274 805M1155 806L1156 807L1155 806M1191 806L1192 807L1191 806z"/>
<path style="fill:#a1a12e; stroke:none;" d="M1342 806L1343 807L1342 806z"/>
<path style="fill:#8c8989; stroke:none;" d="M1050 807L1051 808L1050 807M1104 807L1105 808L1104 807M1156 807L1157 808L1156 807M1031 808L1032 809L1031 808M1103 808L1104 809L1103 808M1190 808L1191 809L1190 808z"/>
<path style="fill:#a1a12e; stroke:none;" d="M1028 809L1029 810L1028 809z"/>
<path style="fill:#8c8989; stroke:none;" d="M1053 809L1054 810L1053 809M1099 811L1100 812L1099 811z"/>
<path style="fill:#a1a12e; stroke:none;" d="M1157.33 811.667L1157.67 812.333L1157.33 811.667z"/>
<path style="fill:#8c8989; stroke:none;" d="M1344 811L1345 812L1344 811M1026 814L1027 815L1026 814M1026 816L1027 817L1026 816z"/>
<path style="fill:#a1a12e; stroke:none;" d="M1057 816L1058 817L1057 816M1185 816L1186 817L1185 816z"/>
<path style="fill:#8c8989; stroke:none;" d="M1057 817L1057 835L1058 835L1057 817z"/>
<path style="fill:#a1a12e; stroke:none;" d="M1094 817L1093 819L1094 817z"/>
<path style="fill:#8c8989; stroke:none;" d="M1346 817L1347 818L1346 817M1025.33 818.667L1025.67 819.333L1025.33 818.667M1094 818L1095 819L1094 818M1092 819L1093 820L1092 819z"/>
<path style="fill:#a1a12e; stroke:none;" d="M1183 819L1184 820L1183 819z"/>
<path style="fill:#8c8989; stroke:none;" d="M1184 819L1185 820L1184 819M1183 820L1184 821L1183 820M1024 821L1025 822L1024 821z"/>
<path style="fill:#a1a12e; stroke:none;" d="M1151 821L1152 822L1151 821M1182 821L1183 822L1182 821z"/>
<path style="fill:#8c8989; stroke:none;" d="M1254 822L1255 823L1254 822M1262 822L1263 823L1262 822M1348 822L1349 823L1348 822z"/>
<path style="fill:#a1a12e; stroke:none;" d="M1089 823L1090 824L1089 823z"/>
<path style="fill:#8c8989; stroke:none;" d="M1244 823L1245 824L1244 823z"/>
<path style="fill:#a1a12e; stroke:none;" d="M1088 824L1089 825L1088 824z"/>
<path style="fill:#8c8989; stroke:none;" d="M1234 824L1235 825L1234 824M1236 824L1237 825L1236 824M1233 825L1234 826L1233 825M1349.33 825.667L1349.67 826.333L1349.33 825.667z"/>
<path style="fill:#a1a12e; stroke:none;" d="M1228.67 826.333L1229.33 826.667L1228.67 826.333z"/>
<path style="fill:#8c8989; stroke:none;" d="M1260 826L1261 827L1260 826M1086 827L1087 828L1086 827M1178 827L1179 828L1178 827M1226 827L1227 828L1226 827z"/>
<path style="fill:#a1a12e; stroke:none;" d="M1019 828L1020 829L1019 828z"/>
<path style="fill:#8c8989; stroke:none;" d="M1259 828L1260 829L1259 828M1085 829L1086 830L1085 829M1145 829L1146 830L1145 829M1018 830L1019 831L1018 830M1177 830L1178 831L1177 830M1226 831L1227 832L1226 831M1350.33 832.667L1350.67 833.333L1350.33 832.667M1081 834L1082 835L1081 834M1227.33 835.667L1227.67 836.333L1227.33 835.667z"/>
<path style="fill:#a1a12e; stroke:none;" d="M1255 835L1256 836L1255 835M1078 837L1079 838L1078 837z"/>
<path style="fill:#8c8989; stroke:none;" d="M1079 837L1080 838L1079 837M1147 837L1148 838L1147 837z"/>
<path style="fill:#a1a12e; stroke:none;" d="M1352 837L1353 838L1352 837z"/>
<path style="fill:#8c8989; stroke:none;" d="M1016 838L1017 839L1016 838M1154 838L1155 839L1154 838M1254 838L1255 839L1254 838M1352 838L1353 839L1352 838M1173.33 839.667L1173.67 840.333L1173.33 839.667M1018 843L1019 844L1018 843M1074 843L1075 844L1074 843M1164.33 843.667L1164.67 844.333L1164.33 843.667M1020 844L1021 845L1020 844M1227 844L1228 845L1227 844M1354 844L1355 845L1354 844M1022 845L1023 846L1022 845M1054 845L1055 846L1054 845M1073 845L1074 846L1073 845z"/>
<path style="fill:#a1a12e; stroke:none;" d="M1173 845L1174 846L1173 845z"/>
<path style="fill:#8c8989; stroke:none;" d="M1250 845L1251 846L1250 845M1025 846L1026 847L1025 846M1227 846L1228 847L1227 846z"/>
<path style="fill:#a1a12e; stroke:none;" d="M1355 848L1356 849L1355 848z"/>
<path style="fill:#8c8989; stroke:none;" d="M1031 850L1032 851L1031 850z"/>
<path style="fill:#a1a12e; stroke:none;" d="M1069 850L1070 851L1069 850M1176 850L1177 851L1176 850z"/>
<path style="fill:#8c8989; stroke:none;" d="M1356 850L1357 851L1356 850M1069 851L1070 852L1069 851M1164 851L1165 852L1164 851M1177 851L1178 852L1177 851M1032 852L1033 853L1032 852M1068.33 852.667L1068.67 853.333L1068.33 852.667M1181 853L1182 854L1181 853M1047 854L1048 855L1047 854M1067 854L1068 855L1067 854M1182.67 854.333L1183.33 854.667L1182.67 854.333M1223 854L1224 855L1223 854z"/>
<path style="fill:#a1a12e; stroke:none;" d="M1357 854L1358 855L1357 854z"/>
<path style="fill:#8c8989; stroke:none;" d="M1046 855L1047 856L1046 855M1357 855L1358 856L1357 855M1159 856L1160 857L1159 856M1221 856L1222 857L1221 856z"/>
<path style="fill:#a1a12e; stroke:none;" d="M1066 857L1066 860L1067 860L1066 857z"/>
<path style="fill:#8c8989; stroke:none;" d="M1192.33 857.667L1192.67 858.333L1192.33 857.667M1219 857L1220 858L1219 857M1038 858L1039 859L1038 858M1041 858L1042 859L1041 858M1155 859L1156 860L1155 859M1195 859L1196 860L1195 859M1358 859L1359 860L1358 859M1150 861L1151 862L1150 861z"/>
<path style="fill:#a1a12e; stroke:none;" d="M1359 863L1360 864L1359 863z"/>
<path style="fill:#8c8989; stroke:none;" d="M1146 864L1147 865L1146 864M1144 865L1145 866L1144 865z"/>
<path style="fill:#a1a12e; stroke:none;" d="M1145 865L1146 866L1145 865z"/>
<path style="fill:#8c8989; stroke:none;" d="M1239 865L1240 866L1239 865z"/>
<path style="fill:#a1a12e; stroke:none;" d="M1144 866L1145 867L1144 866M1360 866L1361 867L1360 866z"/>
<path style="fill:#8c8989; stroke:none;" d="M1142 867L1143 868L1142 867M1360.33 867.667L1360.67 868.333L1360.33 867.667M1072 869L1073 870L1072 869z"/>
<path style="fill:#a1a12e; stroke:none;" d="M1236 870L1237 871L1236 870z"/>
<path style="fill:#8c8989; stroke:none;" d="M1361 871L1362 872L1361 871z"/>
<path style="fill:#a1a12e; stroke:none;" d="M1071 874L1072 875L1071 874M1233 875L1234 876L1233 875z"/>
<path style="fill:#8c8989; stroke:none;" d="M1232 877L1233 878L1232 877z"/>
<path style="fill:#a1a12e; stroke:none;" d="M1362.33 877.667L1362.67 878.333L1362.33 877.667z"/>
<path style="fill:#8c8989; stroke:none;" d="M1069 878L1070 879L1069 878M1231 878L1232 879L1231 878M1230.33 880.667L1230.67 881.333L1230.33 880.667z"/>
<path style="fill:#a1a12e; stroke:none;" d="M1066 882L1067 883L1066 882z"/>
<path style="fill:#8e5c54; stroke:none;" d="M1148 899C1138.83 899.141 1124.9 910.01 1123 919L1121 918L1118 924L1119 931C1118.2 940.261 1131.19 940.047 1134.69 948C1138.44 956.525 1133.69 967.525 1138.95 974.977C1145.1 983.67 1155.8 978.184 1161.32 971.755C1170.5 961.074 1173.42 944.608 1179.29 932C1183.48 923.001 1191.5 917.587 1195.79 909.042C1198.41 903.82 1204.22 888.377 1196 886C1195.39 881.596 1185.66 882.342 1182 883.06C1170.55 885.31 1153.83 887.161 1148 899z"/>
<path style="fill:#a1a12e; stroke:none;" d="M1185.67 882.333L1186.33 882.667L1185.67 882.333z"/>
<path style="fill:#8c8989; stroke:none;" d="M1187 882L1187 883L1191 883L1187 882z"/>
<path style="fill:#a1a12e; stroke:none;" d="M1191 882L1192 883L1191 882z"/>
<path style="fill:#8c8989; stroke:none;" d="M1229 882L1230 883L1229 882M1139 883L1140 884L1139 883z"/>
<path style="fill:#a1a12e; stroke:none;" d="M1179 883L1180 884L1179 883z"/>
<path style="fill:#8c8989; stroke:none;" d="M1180 883L1181 884L1180 883M1195 883L1196 884L1195 883z"/>
<path style="fill:#a1a12e; stroke:none;" d="M1175 884L1176 885L1175 884M1197 884L1198 885L1197 884z"/>
<path style="fill:#8c8989; stroke:none;" d="M1169.67 885.333L1170.33 885.667L1169.67 885.333M1196.67 885.333L1197.33 885.667L1196.67 885.333M1065 886L1066 887L1065 886z"/>
<path style="fill:#a1a12e; stroke:none;" d="M1064 887L1065 888L1064 887z"/>
<path style="fill:#8c8989; stroke:none;" d="M1136 887L1137 888L1136 887M1064 888L1065 889L1064 888M1135 888L1136 889L1135 888M1160 888L1161 889L1160 888M1199 888L1200 889L1199 888z"/>
<path style="fill:#a1a12e; stroke:none;" d="M1157 889L1158 890L1157 889M1062 890L1063 891L1062 890z"/>
<path style="fill:#8c8989; stroke:none;" d="M1132 890L1133 891L1132 890z"/>
<path style="fill:#a1a12e; stroke:none;" d="M1156 890L1157 891L1156 890z"/>
<path style="fill:#8c8989; stroke:none;" d="M1199 890L1200 891L1199 890M1364 890L1365 891L1364 890M1062 891L1063 892L1062 891M1131 891L1132 892L1131 891z"/>
<path style="fill:#a1a12e; stroke:none;" d="M1200 891L1201 892L1200 891z"/>
<path style="fill:#8c8989; stroke:none;" d="M1154 892L1155 893L1154 892M1200 892L1201 893L1200 892M1124.67 893.333L1125.33 893.667L1124.67 893.333z"/>
<path style="fill:#a1a12e; stroke:none;" d="M1200 893L1201 894L1200 893z"/>
<path style="fill:#8c8989; stroke:none;" d="M1152 894L1153 895L1152 894M1118 895L1119 896L1118 895z"/>
<path style="fill:#a1a12e; stroke:none;" d="M1120 895L1121 896L1120 895z"/>
<path style="fill:#8c8989; stroke:none;" d="M1150 895L1151 896L1150 895M1115 896L1116 897L1115 896M1148 896L1149 897L1148 896M1222 896L1223 897L1222 896M1147.33 897.667L1147.67 898.333L1147.33 897.667M1114 898L1115 899L1114 898z"/>
<path style="fill:#a1a12e; stroke:none;" d="M1143 899L1144 900L1143 899z"/>
<path style="fill:#8c8989; stroke:none;" d="M1198 899L1199 900L1198 899z"/>
<path style="fill:#a1a12e; stroke:none;" d="M1220 899L1221 900L1220 899M1366 899L1367 900L1366 899z"/>
<path style="fill:#8c8989; stroke:none;" d="M1057 900L1058 901L1057 900z"/>
<path style="fill:#a1a12e; stroke:none;" d="M1141 900L1142 901L1141 900z"/>
<path style="fill:#8c8989; stroke:none;" d="M1142 900L1143 901L1142 900M1113 901L1114 902L1113 901M1055 903L1056 904L1055 903M1112 904L1113 905L1112 904M1197 905L1198 906L1197 905z"/>
<path style="fill:#a1a12e; stroke:none;" d="M1112 906L1113 907L1112 906z"/>
<path style="fill:#8c8989; stroke:none;" d="M1196 906L1197 907L1196 906M1195 909L1196 910L1195 909M1076 910L1077 911L1076 910M1078 910L1079 911L1078 910M1111 910L1112 911L1111 910M1074.67 911.333L1075.33 911.667L1074.67 911.333M1079.33 911.667L1079.67 912.333L1079.33 911.667M1368 911L1369 912L1368 911M1073 912L1074 913L1073 912M1125 913L1126 914L1125 913M1192 913L1193 914L1192 913M1368 913L1369 918L1370 918L1368 913M1070 914L1071 915L1070 914M1080 914L1081 915L1080 914z"/>
<path style="fill:#a1a12e; stroke:none;" d="M1369 914L1370 915L1369 914z"/>
<path style="fill:#8c8989; stroke:none;" d="M1069 915L1070 916L1069 915M1081 915L1082 916L1081 915z"/>
<path style="fill:#a1a12e; stroke:none;" d="M1212 915L1213 916L1212 915z"/>
<path style="fill:#8c8989; stroke:none;" d="M1068 916L1069 917L1068 916z"/>
<path style="fill:#a1a12e; stroke:none;" d="M1211 916L1212 917L1211 916z"/>
<path style="fill:#8c8989; stroke:none;" d="M1056.67 917.333L1057.33 917.667L1056.67 917.333z"/>
<path style="fill:#a1a12e; stroke:none;" d="M1066 917L1067 918L1066 917z"/>
<path style="fill:#8c8989; stroke:none;" d="M1122.33 917.667L1122.67 918.333L1122.33 917.667M1061 918L1062 919L1061 918M1063 918L1064 919L1063 918z"/>
<path style="fill:#a1a12e; stroke:none;" d="M1064 918L1065 919L1064 918z"/>
<path style="fill:#8c8989; stroke:none;" d="M1107 918L1108 919L1107 918M1210 918L1211 919L1210 918M1120 920L1121 921L1120 920M1185 920L1186 921L1185 920M1209 921L1210 922L1209 921M1370 921L1371 922L1370 921M1119.33 922.667L1119.67 923.333L1119.33 922.667M1184 922L1185 923L1184 922M1090.67 923.333L1091.33 923.667L1090.67 923.333M1094 923L1095 924L1094 923M1096 923L1097 924L1096 923M1100 923L1101 924L1100 923z"/>
<path style="fill:#a1a12e; stroke:none;" d="M1208 923L1209 924L1208 923z"/>
<path style="fill:#8c8989; stroke:none;" d="M1118 925L1119 926L1118 925z"/>
<path style="fill:#a1a12e; stroke:none;" d="M1206 925L1207 926L1206 925z"/>
<path style="fill:#8c8989; stroke:none;" d="M1117 927L1118 928L1117 927M1181 927L1182 928L1181 927z"/>
<path style="fill:#a1a12e; stroke:none;" d="M1205 927L1206 928L1205 927z"/>
<path style="fill:#8c8989; stroke:none;" d="M1180 929L1181 930L1180 929M1203 930L1204 931L1203 930M1118.33 931.667L1118.67 932.333L1118.33 931.667M1371 931L1372 932L1371 931z"/>
<path style="fill:#a1a12e; stroke:none;" d="M1117 932L1118 933L1117 932M1202 932L1203 933L1202 932z"/>
<path style="fill:#8c8989; stroke:none;" d="M1177 936L1178 937L1177 936M1176 939L1177 940L1176 939M1127 940L1128 941L1127 940z"/>
<path style="fill:#a1a12e; stroke:none;" d="M1175 940L1176 941L1175 940z"/>
<path style="fill:#8c8989; stroke:none;" d="M1372 940L1372 943L1373 943L1372 940z"/>
<path style="fill:#a1a12e; stroke:none;" d="M1197 941L1198 942L1197 941M1131 942L1132 943L1131 942z"/>
<path style="fill:#8c8989; stroke:none;" d="M1197 942L1198 943L1197 942M1174 943L1175 944L1174 943M1196 944L1197 945L1196 944M1372 944L1373 945L1372 944z"/>
<path style="fill:#a1a12e; stroke:none;" d="M1133 945L1134 946L1133 945z"/>
<path style="fill:#8c8989; stroke:none;" d="M1173 946L1174 947L1173 946M1373 946L1374 947L1373 946M1194 947L1195 948L1194 947M1135 949L1136 950L1135 949z"/>
<path style="fill:#a1a12e; stroke:none;" d="M1172 949L1173 950L1172 949M1135 950L1136 951L1135 950M1171 950L1172 951L1171 950z"/>
<path style="fill:#8c8989; stroke:none;" d="M1170.33 952.667L1170.67 953.333L1170.33 952.667M1191 952L1192 953L1191 952M1136 955L1136 958L1137 958L1136 955M1169 956L1170 957L1169 956z"/>
<path style="fill:#a1a12e; stroke:none;" d="M1136 958L1136 967L1137 967L1136 958z"/>
<path style="fill:#8c8989; stroke:none;" d="M1168 958L1169 959L1168 958M1188 960L1189 961L1188 960M1187.33 962.667L1187.67 963.333L1187.33 962.667M1137 967L1138 968L1137 967M1185.33 968.667L1185.67 969.333L1185.33 968.667M1162 969L1163 970L1162 969M1159 973L1160 974L1159 973M1139 975L1140 976L1139 975z"/>
<path style="fill:#a1a12e; stroke:none;" d="M1183 975L1184 976L1183 975z"/>
<path style="fill:#8c8989; stroke:none;" d="M1372 975L1373 976L1372 975M1373 976L1374 977L1373 976M1154 977L1155 978L1154 977z"/>
<path style="fill:#a1a12e; stroke:none;" d="M1373 977L1374 978L1373 977z"/>
<path style="fill:#8c8989; stroke:none;" d="M1145 979L1146 980L1145 979z"/>
<path style="fill:#a1a12e; stroke:none;" d="M1149.67 979.333L1150.33 979.667L1149.67 979.333z"/>
<path style="fill:#8c8989; stroke:none;" d="M1372 980L1373 981L1372 980z"/>
<path style="fill:#a1a12e; stroke:none;" d="M1372 981L1373 982L1372 981z"/>
<path style="fill:#8c8989; stroke:none;" d="M1371 988L1372 989L1371 988z"/>
<path style="fill:#8e5c54; stroke:none;" d="M1105 1000L1087 1008C1082.56 1012.13 1074.48 1011.93 1069 1016.38C1059.17 1024.36 1045.17 1048.15 1055.96 1060.54C1058.29 1063.23 1063.74 1063.57 1067 1065C1065.66 1073.07 1072.71 1081.48 1080.85 1075.83C1099.1 1063.15 1117.07 1052.26 1120.42 1029C1121.21 1023.54 1120.88 1013.04 1128 1012L1132 1001C1122.39 991.497 1116.53 999.287 1105 1000z"/>
<path style="fill:#8c8989; stroke:none;" d="M1118 996L1119 997L1118 996M1180 996L1181 997L1180 996M1117 997L1118 998L1117 997M1110 998L1111 999L1110 998z"/>
<path style="fill:#a1a12e; stroke:none;" d="M1107 999L1108 1000L1107 999z"/>
<path style="fill:#8c8989; stroke:none;" d="M1108 999L1109 1000L1108 999M1370 999L1371 1000L1370 999M1104 1000L1103 1002L1105 1002L1104 1000M1106 1000L1107 1001L1106 1000M1101 1002L1102 1003L1101 1002M1131 1002L1132 1003L1131 1002M1099 1003L1100 1004L1099 1003M1130 1004L1131 1005L1130 1004M1096 1005L1097 1006L1096 1005z"/>
<path style="fill:#a1a12e; stroke:none;" d="M1131 1005L1132 1006L1131 1005M1179.33 1005.67L1179.67 1006.33L1179.33 1005.67z"/>
<path style="fill:#8c8989; stroke:none;" d="M1369 1005L1368 1007L1370 1007L1369 1005M1090 1007L1091 1008L1090 1007M1179.33 1007.67L1179.67 1008.33L1179.33 1007.67z"/>
<path style="fill:#a1a12e; stroke:none;" d="M1369 1007L1370 1008L1369 1007z"/>
<path style="fill:#8c8989; stroke:none;" d="M1088 1008L1089 1009L1088 1008z"/>
<path style="fill:#a1a12e; stroke:none;" d="M1086 1009L1087 1010L1086 1009z"/>
<path style="fill:#8c8989; stroke:none;" d="M1084 1010L1085 1011L1084 1010M1126 1011L1127 1012L1126 1011M1074 1012L1075 1013L1074 1012z"/>
<path style="fill:#a1a12e; stroke:none;" d="M1124 1012L1125 1013L1124 1012z"/>
<path style="fill:#8c8989; stroke:none;" d="M1178 1012L1178 1015L1179 1015L1178 1012z"/>
<path style="fill:#a1a12e; stroke:none;" d="M1071 1014L1072 1015L1071 1014z"/>
<path style="fill:#8c8989; stroke:none;" d="M1367.33 1014.67L1367.67 1015.33L1367.33 1014.67M1122 1016L1123 1017L1122 1016z"/>
<path style="fill:#a1a12e; stroke:none;" d="M1367 1016L1368 1017L1367 1016M1177 1017L1178 1018L1177 1017z"/>
<path style="fill:#8c8989; stroke:none;" d="M1177 1018L1178 1019L1177 1018M1121 1019L1122 1020L1121 1019M1366 1021L1367 1022L1366 1021M1173 1023L1174 1024L1173 1023z"/>
<path style="fill:#a1a12e; stroke:none;" d="M1061 1024L1062 1025L1061 1024z"/>
<path style="fill:#8c8989; stroke:none;" d="M1365 1024L1366 1025L1365 1024M1172 1025L1173 1026L1172 1025M1059 1026L1060 1027L1059 1026z"/>
<path style="fill:#a1a12e; stroke:none;" d="M1171 1026L1172 1027L1171 1026z"/>
<path style="fill:#8c8989; stroke:none;" d="M1364 1026L1365 1027L1364 1026z"/>
<path style="fill:#a1a12e; stroke:none;" d="M1365 1026L1366 1027L1365 1026z"/>
<path style="fill:#8c8989; stroke:none;" d="M1058 1027L1059 1028L1058 1027M1120 1028L1121 1029L1120 1028M1169.33 1028.67L1169.67 1029.33L1169.33 1028.67z"/>
<path style="fill:#a1a12e; stroke:none;" d="M1168 1029L1169 1030L1168 1029z"/>
<path style="fill:#8c8989; stroke:none;" d="M1364 1030L1365 1031L1364 1030M1056 1031L1057 1032L1056 1031z"/>
<path style="fill:#a1a12e; stroke:none;" d="M1166 1031L1167 1032L1166 1031M1165 1032L1166 1033L1165 1032z"/>
<path style="fill:#8c8989; stroke:none;" d="M1363.33 1032.67L1363.67 1033.33L1363.33 1032.67M1119 1035L1120 1036L1119 1035z"/>
<path style="fill:#a1a12e; stroke:none;" d="M1162 1035L1163 1036L1162 1035z"/>
<path style="fill:#8c8989; stroke:none;" d="M1161 1036L1162 1037L1161 1036M1118 1038L1119 1039L1118 1038z"/>
<path style="fill:#a1a12e; stroke:none;" d="M1158 1039L1159 1040L1158 1039z"/>
<path style="fill:#8c8989; stroke:none;" d="M1117 1041L1118 1042L1117 1041M1155 1043L1156 1044L1155 1043M1116 1044L1117 1045L1116 1044M1362.33 1044.67L1362.67 1045.33L1362.33 1044.67M1115.33 1046.67L1115.67 1047.33L1115.33 1046.67z"/>
<path style="fill:#a1a12e; stroke:none;" d="M1362 1046L1363 1047L1362 1046z"/>
<path style="fill:#8c8989; stroke:none;" d="M1149 1049L1150 1050L1149 1049z"/>
<path style="fill:#a1a12e; stroke:none;" d="M1113 1050L1114 1051L1113 1050M1148 1050L1149 1051L1148 1050z"/>
<path style="fill:#8c8989; stroke:none;" d="M1361 1052L1362 1053L1361 1052z"/>
<path style="fill:#a1a12e; stroke:none;" d="M1110 1053L1111 1054L1110 1053z"/>
<path style="fill:#8c8989; stroke:none;" d="M1361 1054L1362 1055L1361 1054M1107 1055L1108 1056L1107 1055M1103 1057L1104 1058L1103 1057M1101 1059L1102 1060L1101 1059M1360 1059L1361 1060L1360 1059M1100 1060L1101 1061L1100 1060z"/>
<path style="fill:#a1a12e; stroke:none;" d="M1360 1060L1361 1061L1360 1060z"/>
<path style="fill:#8c8989; stroke:none;" d="M1062 1062L1064 1064L1062 1062z"/>
<path style="fill:#a1a12e; stroke:none;" d="M1140 1062L1141 1063L1140 1062z"/>
<path style="fill:#8c8989; stroke:none;" d="M1359.33 1062.67L1359.67 1063.33L1359.33 1062.67z"/>
<path style="fill:#a1a12e; stroke:none;" d="M1062 1063L1063 1064L1062 1063z"/>
<path style="fill:#8c8989; stroke:none;" d="M1066 1065L1067 1066L1066 1065M1066 1068L1067 1069L1066 1068M1085 1070L1086 1071L1085 1070M1084 1072L1085 1073L1084 1072M1083 1073L1084 1074L1083 1073M1357 1073L1358 1074L1357 1073z"/>
<path style="fill:#a1a12e; stroke:none;" d="M1068 1074L1069 1075L1068 1074z"/>
<path style="fill:#8c8989; stroke:none;" d="M1356 1074L1357 1075L1356 1074M1069 1075L1070 1076L1069 1075z"/>
<path style="fill:#a1a12e; stroke:none;" d="M1081.67 1075.33L1082.33 1075.67L1081.67 1075.33z"/>
<path style="fill:#8c8989; stroke:none;" d="M1080 1076L1081 1077L1080 1076M1356 1076L1357 1077L1356 1076M1073 1077L1074 1078L1073 1077M1076 1077L1077 1078L1076 1077z"/>
<path style="fill:#a1a12e; stroke:none;" d="M1078 1077L1079 1078L1078 1077z"/>
<path style="fill:#8c8989; stroke:none;" d="M1356 1078L1357 1079L1356 1078z"/>
<path style="fill:#a1a12e; stroke:none;" d="M1355 1081L1356 1082L1355 1081M1354 1085L1355 1086L1354 1085M1353 1089L1354 1090L1353 1089z"/>
<path style="fill:#8c8989; stroke:none;" d="M1079.67 1090.33L1080.33 1090.67L1079.67 1090.33M1095 1092L1096 1093L1095 1092z"/>
<path style="fill:#a1a12e; stroke:none;" d="M1352 1093L1353 1094L1352 1093z"/>
<path style="fill:#8c8989; stroke:none;" d="M1350 1100L1351 1101L1350 1100M1144 1101L1145 1102L1144 1101M1063 1103L1064 1104L1063 1103M1099 1103L1100 1104L1099 1103M1061 1106L1062 1107L1061 1106M1142 1106L1143 1107L1142 1106z"/>
<path style="fill:#a1a12e; stroke:none;" d="M1098 1107L1099 1108L1098 1107M1097 1108L1098 1109L1097 1108z"/>
<path style="fill:#8c8989; stroke:none;" d="M1058 1110L1059 1111L1058 1110M1349 1110L1350 1111L1349 1110M1096 1111L1097 1112L1096 1111M1057 1114L1058 1115L1057 1114M1137 1114L1138 1115L1137 1114M1348 1114L1349 1115L1348 1114z"/>
<path style="fill:#8e5c54; stroke:none;" d="M814.174 1115.84C800.796 1116.64 786.505 1121.26 774.769 1127.75C770.534 1130.1 766.407 1139.06 774.105 1139.76C781.262 1140.42 789.191 1136.49 796.004 1134.84C810.176 1131.39 825.386 1128 840 1127.71C845.052 1127.61 857.747 1128.61 860.087 1122.9C862.482 1117.04 853.655 1116.13 850.015 1115.61C838.283 1113.97 825.925 1115.13 814.174 1115.84z"/>
<path style="fill:#8c8989; stroke:none;" d="M815 1115L815 1116L822 1116L815 1115M827 1115L828 1116L827 1115M845 1115L846 1116L845 1115M849 1115L849 1116L852 1116L849 1115M1135.67 1115.33L1136.33 1115.67L1135.67 1115.33M809 1116L810 1117L809 1116M812 1116L813 1117L812 1116M855 1116L856 1117L855 1116M1093 1116L1094 1117L1093 1116M1134 1116L1135 1117L1134 1116M1348 1116L1349 1117L1348 1116M801 1117L802 1118L801 1117M1056 1117L1057 1118L1056 1117z"/>
<path style="fill:#a1a12e; stroke:none;" d="M1094 1117L1095 1118L1094 1117z"/>
<path style="fill:#8c8989; stroke:none;" d="M1132 1117L1133 1118L1132 1117M1347 1117L1348 1118L1347 1117M797 1118L798 1119L797 1118M859 1118L860 1119L859 1118M1099 1118L1100 1119L1099 1118M1109 1118L1110 1119L1109 1118z"/>
<path style="fill:#a1a12e; stroke:none;" d="M1111 1118L1112 1119L1111 1118z"/>
<path style="fill:#8c8989; stroke:none;" d="M795 1119L796 1120L795 1119M1117.67 1119.33L1118.33 1119.67L1117.67 1119.33M1347 1119L1348 1120L1347 1119M793 1120L794 1121L793 1120M789 1121L790 1122L789 1121M786 1122L787 1123L786 1122M860 1123L861 1124L860 1123M859 1124L860 1125L859 1124M1346 1125L1347 1126L1346 1125M777 1126L778 1127L777 1126M855 1126L856 1127L855 1126M774 1127L775 1128L774 1127M776 1127L777 1128L776 1127M837 1127L838 1128L837 1127z"/>
<path style="fill:#a1a12e; stroke:none;" d="M838.667 1127.33L839.333 1127.67L838.667 1127.33z"/>
<path style="fill:#8c8989; stroke:none;" d="M833.667 1128.33L834.333 1128.67L833.667 1128.33M771 1129L772 1130L771 1129M815 1130L816 1131L815 1130M1058 1130L1059 1131L1058 1130M1101 1130L1102 1131L1101 1130z"/>
<path style="fill:#a1a12e; stroke:none;" d="M770 1131L771 1132L770 1131M1088 1131L1089 1132L1088 1131z"/>
<path style="fill:#8c8989; stroke:none;" d="M1111 1131L1111 1132L1114 1132L1111 1131M770 1132L771 1133L770 1132M803 1132L804 1133L803 1132M805 1132L806 1133L805 1132M1060 1132L1062 1134L1062 1132L1060 1132z"/>
<path style="fill:#a1a12e; stroke:none;" d="M1114 1132L1115 1133L1114 1132z"/>
<path style="fill:#8c8989; stroke:none;" d="M1115.67 1132.33L1116.33 1132.67L1115.67 1132.33M802 1133L803 1134L802 1133M1344 1133L1345 1134L1344 1133M1087 1134L1088 1135L1087 1134M792 1135L793 1136L792 1135z"/>
<path style="fill:#a1a12e; stroke:none;" d="M793 1135L794 1136L793 1135z"/>
<path style="fill:#8c8989; stroke:none;" d="M1115 1135L1116 1136L1115 1135z"/>
<path style="fill:#a1a12e; stroke:none;" d="M1343 1135L1344 1136L1343 1135z"/>
<path style="fill:#8c8989; stroke:none;" d="M769.333 1136.67L769.667 1137.33L769.333 1136.67z"/>
<path style="fill:#a1a12e; stroke:none;" d="M789 1136L790 1137L789 1136z"/>
<path style="fill:#8c8989; stroke:none;" d="M1067.33 1136.67L1067.67 1137.33L1067.33 1136.67M1086 1136L1087 1137L1086 1136M1085 1137L1086 1138L1085 1137M1114 1137L1115 1138L1114 1137M770 1138L771 1139L770 1138z"/>
<path style="fill:#a1a12e; stroke:none;" d="M1069 1138L1070 1139L1069 1138z"/>
<path style="fill:#8c8989; stroke:none;" d="M1083 1139L1084 1140L1083 1139M1076 1140L1076 1141L1079 1141L1076 1140z"/>
<path style="fill:#a1a12e; stroke:none;" d="M1079 1140L1080 1141L1079 1140z"/>
<path style="fill:#8c8989; stroke:none;" d="M1341 1144L1342 1145L1341 1144M1103 1146L1104 1147L1103 1146z"/>
<path style="fill:#a1a12e; stroke:none;" d="M1073 1147L1074 1148L1073 1147z"/>
<path style="fill:#8c8989; stroke:none;" d="M1074 1147L1074 1148L1077 1148L1074 1147z"/>
<path style="fill:#8e5c54; stroke:none;" d="M1070 1149L1071 1152L1078 1151C1076.14 1145.43 1072.02 1149.5 1070 1149z"/>
<path style="fill:#8c8989; stroke:none;" d="M1100 1148L1101 1149L1100 1148M1071 1149L1072 1150L1071 1149M1097 1149L1098 1150L1097 1149M1340 1149L1341 1150L1340 1149M1070 1150L1069 1152L1071 1152L1070 1150M1072.67 1151.33L1073.33 1151.67L1072.67 1151.33M1094 1152L1095 1153L1094 1152M1339 1153L1340 1154L1339 1153z"/>
<path style="fill:#a1a12e; stroke:none;" d="M1088 1156L1089 1157L1088 1156z"/>
<path style="fill:#8c8989; stroke:none;" d="M1338 1156L1339 1157L1338 1156M1087 1157L1088 1158L1087 1157M1081.33 1161.67L1081.67 1162.33L1081.33 1161.67M1203 1163L1204 1164L1203 1163M1211 1163L1211 1164L1226 1164L1211 1163z"/>
<path style="fill:#a1a12e; stroke:none;" d="M1226 1163L1227 1164L1226 1163z"/>
<path style="fill:#8c8989; stroke:none;" d="M1320 1163L1321 1164L1320 1163M1189 1164L1188 1166L1189 1164M1191 1164L1192 1165L1191 1164M1193 1164L1194 1165L1193 1164M1233 1164L1234 1165L1233 1164M1300.67 1164.33L1301.33 1164.67L1300.67 1164.33z"/>
<path style="fill:#a1a12e; stroke:none;" d="M1302 1164L1303 1165L1302 1164M1327 1164L1328 1165L1327 1164z"/>
<path style="fill:#8c8989; stroke:none;" d="M1329 1164L1330 1165L1329 1164M1083 1165L1084 1166L1083 1165M1186 1165L1187 1166L1186 1165z"/>
<path style="fill:#a1a12e; stroke:none;" d="M1189 1165L1190 1166L1189 1165z"/>
<path style="fill:#8c8989; stroke:none;" d="M1236.67 1165.33L1237.33 1165.67L1236.67 1165.33M1297.67 1165.33L1298.33 1165.67L1297.67 1165.33M1134 1166L1135 1167L1134 1166M1138 1166L1139 1167L1138 1166M1148 1166L1149 1167L1148 1166z"/>
<path style="fill:#a1a12e; stroke:none;" d="M1244 1166L1245 1167L1244 1166z"/>
<path style="fill:#8c8989; stroke:none;" d="M1131 1167L1132 1168L1131 1167z"/>
<path style="fill:#a1a12e; stroke:none;" d="M1151 1167L1152 1168L1151 1167z"/>
<path style="fill:#8c8989; stroke:none;" d="M1175.67 1167.33L1176.33 1167.67L1175.67 1167.33M1292 1167L1293 1168L1292 1167z"/>
<path style="fill:#a1a12e; stroke:none;" d="M1093 1168L1094 1169L1093 1168z"/>
<path style="fill:#8c8989; stroke:none;" d="M1094.67 1168.33L1095.33 1168.67L1094.67 1168.33M1171 1168L1172 1169L1171 1168z"/>
<path style="fill:#a1a12e; stroke:none;" d="M1254 1168L1255 1169L1254 1168z"/>
<path style="fill:#8c8989; stroke:none;" d="M1255 1168L1256 1169L1255 1168M1289 1168L1290 1169L1289 1168M1114 1169L1115 1170L1114 1169M1118.67 1169.33L1119.33 1169.67L1118.67 1169.33z"/>
<path style="fill:#a1a12e; stroke:none;" d="M1120 1169L1121 1170L1120 1169z"/>
<path style="fill:#8c8989; stroke:none;" d="M1168.67 1169.33L1169.33 1169.67L1168.67 1169.33M1258.67 1169.33L1259.33 1169.67L1258.67 1169.33M1286.67 1169.33L1287.33 1169.67L1286.67 1169.33M1152 1170L1153 1171L1152 1170M1164 1170L1165 1171L1164 1170M1166 1170L1167 1171L1166 1170M1284 1170L1285 1171L1284 1170z"/>
<path style="fill:#a1a12e; stroke:none;" d="M1152 1171L1153 1172L1152 1171z"/>
<path style="fill:#8c8989; stroke:none;" d="M1160.67 1171.33L1161.33 1171.67L1160.67 1171.33z"/>
<path style="fill:#a1a12e; stroke:none;" d="M1265 1171L1265 1172L1277 1172L1265 1171z"/>
<path style="fill:#8c8989; stroke:none;" d="M1153 1172L1154 1173L1153 1172M1155 1172L1156 1173L1155 1172z"/>
<path style="fill:#a1a12e; stroke:none;" d="M1077 1324L1078 1325L1077 1324z"/>
<path style="fill:#8e5c54; stroke:none;" d="M1078 1324L1079 1325L1078 1324z"/>
<path style="fill:#8c8989; stroke:none;" d="M1079.08 1324.8C1072.08 1325.62 1073.92 1336.22 1080.95 1335.21C1087.23 1334.31 1085.02 1324.1 1079.08 1324.8z"/>
<path style="fill:#8e5c54; stroke:none;" d="M1084 1327L1085 1328L1084 1327M1074 1329L1075 1330L1074 1329z"/>
<path style="fill:#8c8989; stroke:none;" d="M1175 1378C1168.71 1371.65 1161.85 1364.2 1158.05 1356C1155.43 1350.35 1156.43 1341.46 1148.04 1340.91C1143.86 1340.64 1142.91 1344.57 1143.12 1348C1143.59 1355.57 1145.67 1362.17 1144.83 1370C1144.04 1377.35 1140.09 1385.34 1142.32 1392.85C1144.43 1399.96 1152.35 1393.89 1154.04 1390C1155.61 1386.38 1156.22 1382.55 1158 1379C1162.46 1387.02 1179.95 1398.57 1186.2 1385.91C1191.15 1375.86 1188 1358.99 1188 1348L1199 1349C1196.45 1360.41 1193.02 1371.2 1193 1383C1192.99 1387.87 1193.14 1395.17 1199.99 1394.66C1205.2 1394.28 1205.99 1389.25 1205.97 1385.01C1205.9 1372.26 1209 1359.78 1209 1347L1221 1345C1217.84 1351.28 1216.12 1358.64 1223 1363C1221.11 1370.32 1217.61 1380.8 1221.37 1388.07C1225.91 1396.86 1241.73 1397.03 1248.7 1391.35C1256.83 1384.73 1258.94 1374.89 1259 1365C1266.84 1371.49 1277 1375.28 1287 1377C1280.36 1383.78 1269.55 1377.62 1262.34 1382.18C1256.99 1385.57 1260.12 1392.42 1265.02 1394.15C1276.13 1398.07 1305.67 1393.32 1302.52 1377C1300.6 1367.08 1290.41 1364.14 1282 1361.42C1278.04 1360.15 1270.54 1358.02 1269.92 1352.98C1268.92 1344.73 1283.41 1342.02 1289 1342L1286 1351C1291.16 1348.24 1299.6 1339.12 1292.52 1333.94C1281.59 1325.94 1261.37 1334.75 1257 1346C1248.53 1340.02 1242.71 1336.45 1232 1339C1227.82 1324.92 1201.01 1339.6 1191.11 1337.59C1186.35 1336.63 1182.69 1325.7 1176.6 1332.46C1173.93 1335.43 1175 1341.33 1175 1345L1175 1378z"/>
<path style="fill:#8e5c54; stroke:none;" d="M1180.67 1330.33L1181.33 1330.67L1180.67 1330.33z"/>
<path style="fill:#8c8989; stroke:none;" d="M1008.1 1332.76C999.824 1336 1003.98 1349.14 1012.77 1345.11C1019.09 1342.21 1015.78 1329.75 1008.1 1332.76z"/>
<path style="fill:#8e5c54; stroke:none;" d="M1274 1332L1275 1333L1274 1332z"/>
<path style="fill:#a1a12e; stroke:none;" d="M1289 1332L1290 1333L1289 1332M1102.67 1333.33L1103.33 1333.67L1102.67 1333.33M1218 1333L1219 1334L1218 1333z"/>
<path style="fill:#8e5c54; stroke:none;" d="M1222 1333L1223 1334L1222 1333M1224.67 1333.33L1225.33 1333.67L1224.67 1333.33z"/>
<path style="fill:#a1a12e; stroke:none;" d="M1015 1334L1016 1335L1015 1334z"/>
<path style="fill:#8e5c54; stroke:none;" d="M1076 1334L1077 1335L1076 1334z"/>
<path style="fill:#8c8989; stroke:none;" d="M1097 1341C1089.99 1342.12 1090.38 1349.05 1089.98 1355C1089.31 1364.74 1081.84 1389.5 1095 1393.28C1104.74 1396.07 1122.51 1391.13 1132 1387.95C1136.09 1386.57 1142.24 1382.26 1138.25 1377.43C1135.68 1374.32 1131.44 1375.44 1128 1375.84C1118.94 1376.91 1109.98 1378.91 1101 1380L1101 1375C1109.6 1373.84 1119.94 1370.21 1126.89 1364.91C1129.94 1362.58 1133.42 1355.72 1127.85 1353.85C1120.97 1351.53 1107.98 1360.51 1101 1362L1100 1345C1110.19 1347.86 1135.28 1351.13 1137 1336C1128.61 1335.94 1096.54 1327.9 1097 1341z"/>
<path style="fill:#8e5c54; stroke:none;" d="M1110 1334L1111 1335L1110 1334M1117 1334L1117 1335L1120 1335L1117 1334z"/>
<path style="fill:#a1a12e; stroke:none;" d="M1230 1334L1231 1335L1230 1334z"/>
<path style="fill:#8e5c54; stroke:none;" d="M1267 1334L1268 1335L1267 1334M1293 1334L1294 1335L1293 1334z"/>
<path style="fill:#a1a12e; stroke:none;" d="M1004 1335L1005 1336L1004 1335z"/>
<path style="fill:#8e5c54; stroke:none;" d="M1078 1335L1079 1336L1078 1335z"/>
<path style="fill:#a1a12e; stroke:none;" d="M1081 1335L1082 1336L1081 1335z"/>
<path style="fill:#8e5c54; stroke:none;" d="M1127 1335L1128 1336L1127 1335z"/>
<path style="fill:#a1a12e; stroke:none;" d="M1187 1335L1188 1336L1187 1335z"/>
<path style="fill:#8e5c54; stroke:none;" d="M1294 1335L1295 1336L1294 1335z"/>
<path style="fill:#a1a12e; stroke:none;" d="M1174.33 1336.67L1174.67 1337.33L1174.33 1336.67M1202 1336L1203 1337L1202 1336z"/>
<path style="fill:#8c8989; stroke:none;" d="M869 1386C873.08 1391.78 884.897 1389.18 889.999 1385.9C900.488 1379.15 908.325 1364.71 904.347 1352C901.003 1341.31 886.913 1337.69 877.04 1340.03C871.05 1341.44 868.331 1348.13 872 1353L872 1354C866.926 1359.81 866.021 1369.55 866 1377C856.251 1375.21 845.476 1381.63 835 1380.91C831.858 1380.7 825.949 1380.57 824.067 1377.57C819.528 1370.32 831.193 1354.7 836.089 1350.33C839.87 1346.95 845.04 1343.62 847 1350C853.325 1346.51 850.885 1338.42 844.003 1337.24C835.6 1335.8 826.487 1341.89 821.39 1348.04C818.291 1351.78 816.049 1356.24 813.94 1360.58C812.15 1364.26 810.621 1367.89 810.174 1372C806.585 1405.02 851.746 1396.04 869 1386z"/>
<path style="fill:#8e5c54; stroke:none;" d="M838 1337L839 1338L838 1337z"/>
<path style="fill:#a1a12e; stroke:none;" d="M1003 1337L1004 1338L1003 1337z"/>
<path style="fill:#8c8989; stroke:none;" d="M1078.27 1337.79C1074.43 1339.36 1074.48 1346.5 1074.22 1349.96C1073.37 1361.4 1072.33 1373.54 1073.04 1385C1073.35 1389.85 1076.48 1394.43 1081.94 1392.25C1086.61 1390.39 1086 1385.13 1086 1381C1086.01 1369.95 1086.75 1358.58 1085.69 1347.58C1085.32 1343.7 1084.36 1335.29 1078.27 1337.79z"/>
<path style="fill:#a1a12e; stroke:none;" d="M1194 1337L1195 1338L1194 1337z"/>
<path style="fill:#8e5c54; stroke:none;" d="M1263 1337L1264 1338L1263 1337M976 1338L977 1339L976 1338z"/>
<path style="fill:#8c8989; stroke:none;" d="M959 1344C957.723 1350.88 962.845 1369.33 957.397 1374.17C952.922 1378.15 938.625 1374 933 1374C938.195 1365.83 944.941 1359.67 941.121 1349C937.417 1338.66 919.287 1334.82 913.028 1345.16C911.086 1348.37 912.073 1353.42 911.985 1357C911.758 1366.3 907.395 1382.39 912.179 1390.89C917.259 1399.92 923.921 1391.66 924 1385C933.967 1387.58 948.883 1390.19 959 1388C961.207 1396.25 968.708 1397.1 972 1389C980.986 1392.98 1006.17 1397.97 1013.12 1387.77C1015.27 1384.62 1013.35 1381.37 1013.22 1378C1012.96 1371.33 1017.59 1350.87 1008.82 1347.8C1004.5 1346.29 1003.18 1350.72 1003.02 1354C1002.55 1363.67 1001.01 1373.31 1001 1383L979 1378C980.355 1374.94 982.52 1372.73 984.424 1369.99C990.116 1361.79 996.821 1337.99 979.83 1338.19C976.947 1338.22 973.842 1338.71 971 1339.2C966.567 1339.95 963.229 1342.85 959 1344z"/>
<path style="fill:#a1a12e; stroke:none;" d="M982 1338L983 1339L982 1338M1058 1338L1059 1339L1058 1338M1096 1338L1097 1339L1096 1338M1233 1338L1234 1339L1233 1338z"/>
<path style="fill:#8e5c54; stroke:none;" d="M849 1339L850 1340L849 1339M877.667 1339.33L878.333 1339.67L877.667 1339.33M880 1339L880 1340L885 1340L880 1339M886 1339L887 1340L886 1339z"/>
<path style="fill:#a1a12e; stroke:none;" d="M1030 1339L1031 1340L1030 1339z"/>
<path style="fill:#8c8989; stroke:none;" d="M1038 1382C1043.8 1383.71 1048.14 1382.42 1053 1379C1054.34 1384.58 1066.32 1397.56 1068.71 1385.81C1069.61 1381.35 1066.73 1376.44 1066.24 1372C1065.3 1363.57 1067.47 1350.75 1064.26 1343.06C1060.67 1334.47 1053.21 1341.48 1051.77 1347C1051.05 1349.72 1050.08 1352.34 1049.17 1355C1047.56 1359.71 1045.6 1364.29 1044 1369C1038.93 1361.78 1041.92 1345.95 1036.4 1340.86C1029.02 1334.07 1025.31 1348.34 1025.1 1353C1024.65 1363.2 1022.9 1383.55 1026.6 1392.96C1028.49 1397.75 1034.33 1398.33 1036.97 1393.81C1038.85 1390.59 1038 1385.59 1038 1382z"/>
<path style="fill:#8e5c54; stroke:none;" d="M1034 1339L1035 1340L1034 1339M1055 1339L1056 1340L1055 1339M890 1340L891 1341L890 1340M922 1340L923 1341L922 1340z"/>
<path style="fill:#a1a12e; stroke:none;" d="M934 1340L935 1341L934 1340z"/>
<path style="fill:#8e5c54; stroke:none;" d="M966 1340L967 1341L966 1340z"/>
<path style="fill:#a1a12e; stroke:none;" d="M1096 1340L1097 1341L1096 1340z"/>
<path style="fill:#8e5c54; stroke:none;" d="M1147.67 1340.33L1148.33 1340.67L1147.67 1340.33z"/>
<path style="fill:#a1a12e; stroke:none;" d="M1149 1340L1150 1341L1149 1340M894 1341L895 1342L894 1341z"/>
<path style="fill:#8e5c54; stroke:none;" d="M920 1341L921 1342L920 1341z"/>
<path style="fill:#a1a12e; stroke:none;" d="M1151 1341L1152 1342L1151 1341z"/>
<path style="fill:#8e5c54; stroke:none;" d="M1251 1341L1252 1342L1251 1341z"/>
<path style="fill:#a1a12e; stroke:none;" d="M827 1342L828 1343L827 1342z"/>
<path style="fill:#8e5c54; stroke:none;" d="M872 1342L873 1343L872 1342M1027 1342L1028 1343L1027 1342z"/>
<path style="fill:#a1a12e; stroke:none;" d="M1064 1342L1065 1343L1064 1342M1091 1342L1092 1343L1091 1342z"/>
<path style="fill:#8e5c54; stroke:none;" d="M1143 1342L1144 1343L1143 1342z"/>
<path style="fill:#a1a12e; stroke:none;" d="M1174 1342L1174 1345L1175 1345L1174 1342z"/>
<path style="fill:#8e5c54; stroke:none;" d="M1252 1342L1253 1343L1252 1342z"/>
<path style="fill:#a1a12e; stroke:none;" d="M1280.67 1342.33L1281.33 1342.67L1280.67 1342.33z"/>
<path style="fill:#8e5c54; stroke:none;" d="M826 1343L827 1344L826 1343M913 1343L914 1344L913 1343M1052 1343L1053 1344L1052 1343z"/>
<path style="fill:#a1a12e; stroke:none;" d="M1074 1343L1074 1348L1075 1348L1074 1343z"/>
<path style="fill:#8e5c54; stroke:none;" d="M1154 1343L1155 1344L1154 1343M1253 1343L1254 1344L1253 1343z"/>
<path style="fill:#a1a12e; stroke:none;" d="M912 1344L913 1345L912 1344z"/>
<path style="fill:#8e5c54; stroke:none;" d="M938 1344L939 1345L938 1344z"/>
<path style="fill:#a1a12e; stroke:none;" d="M1085.33 1344.67L1085.67 1345.33L1085.33 1344.67M1131 1344L1132 1345L1131 1344M1287 1344L1288 1345L1287 1344z"/>
<path style="fill:#8e5c54; stroke:none;" d="M842 1345L843 1346L842 1345z"/>
<path style="fill:#a1a12e; stroke:none;" d="M843 1345L844 1346L843 1345M870 1345L871 1346L870 1345z"/>
<path style="fill:#8e5c54; stroke:none;" d="M900 1345L901 1346L900 1345z"/>
<path style="fill:#a1a12e; stroke:none;" d="M939 1345L940 1346L939 1345z"/>
<path style="fill:#8e5c54; stroke:none;" d="M1012 1345L1013 1346L1012 1345z"/>
<path style="fill:#a1a12e; stroke:none;" d="M1038 1345L1038 1351L1039 1351L1038 1345M1100.67 1345.33L1101.33 1345.67L1100.67 1345.33z"/>
<path style="fill:#8e5c54; stroke:none;" d="M1218 1345L1219 1346L1218 1345z"/>
<path style="fill:#a1a12e; stroke:none;" d="M1274 1345L1275 1346L1274 1345z"/>
<path style="fill:#8e5c54; stroke:none;" d="M958 1346L959 1347L958 1346M1100 1346L1101 1347L1100 1346z"/>
<path style="fill:#a1a12e; stroke:none;" d="M1105 1346L1106 1347L1105 1346z"/>
<path style="fill:#8e5c54; stroke:none;" d="M1123 1346L1124 1347L1123 1346M1213 1346L1214 1347L1213 1346z"/>
<path style="fill:#a1a12e; stroke:none;" d="M990 1347L991 1348L990 1347z"/>
<path style="fill:#8e5c54; stroke:none;" d="M1009 1347L1010 1348L1009 1347M1051.33 1347.67L1051.67 1348.33L1051.33 1347.67M990 1348L991 1349L990 1348M1085 1348L1086 1349L1085 1348M1100 1348L1101 1349L1100 1348z"/>
<path style="fill:#a1a12e; stroke:none;" d="M836 1349L837 1350L836 1349z"/>
<path style="fill:#8e5c54; stroke:none;" d="M849 1349L850 1350L849 1349z"/>
<path style="fill:#a1a12e; stroke:none;" d="M903 1349L904 1350L903 1349z"/>
<path style="fill:#040403; stroke:none;" d="M927 1349L925 1363C929.852 1359.38 933.776 1352.74 927 1349z"/>
<path style="fill:#8e5c54; stroke:none;" d="M929 1349L930 1350L929 1349M976.667 1349.33L977.333 1349.67L976.667 1349.33M1011 1349L1012 1350L1011 1349M1090 1349L1091 1350L1090 1349M926 1350L927 1351L926 1350z"/>
<path style="fill:#040403; stroke:none;" d="M971 1350L971 1365C975.801 1361.23 978.105 1355.97 979 1350L971 1350z"/>
<path style="fill:#a1a12e; stroke:none;" d="M834 1351L835 1352L834 1351M1050 1351L1051 1352L1050 1351M1143 1351L1144 1352L1143 1351z"/>
<path style="fill:#040403; stroke:none;" d="M1239 1351L1233 1382C1247.17 1381.66 1254.11 1354.12 1239 1351z"/>
<path style="fill:#a1a12e; stroke:none;" d="M1242 1351L1243 1352L1242 1351z"/>
<path style="fill:#8e5c54; stroke:none;" d="M818 1352L819 1353L818 1352z"/>
<path style="fill:#a1a12e; stroke:none;" d="M833 1352L834 1353L833 1352z"/>
<path style="fill:#8e5c54; stroke:none;" d="M885 1352L886 1353L885 1352M871 1353L872 1354L871 1353z"/>
<path style="fill:#040403; stroke:none;" d="M884 1353L884 1359C878.228 1360.69 879.003 1370.95 879 1376C888.587 1372.94 899.956 1354.45 884 1353z"/>
<path style="fill:#a1a12e; stroke:none;" d="M1049 1353L1050 1354L1049 1353z"/>
<path style="fill:#8e5c54; stroke:none;" d="M1074 1353L1075 1354L1074 1353M1144 1353L1145 1354L1144 1353M817 1354L818 1355L817 1354M958 1354L959 1355L958 1354z"/>
<path style="fill:#a1a12e; stroke:none;" d="M1122 1354L1123 1355L1122 1354M1144 1354L1145 1355L1144 1354M1217.33 1354.67L1217.67 1355.33L1217.33 1354.67M1245 1354L1246 1355L1245 1354M1120 1355L1121 1356L1120 1355z"/>
<path style="fill:#8e5c54; stroke:none;" d="M1157 1355L1158 1356L1157 1355z"/>
<path style="fill:#a1a12e; stroke:none;" d="M830 1356L831 1357L830 1356z"/>
<path style="fill:#8e5c54; stroke:none;" d="M970 1356L971 1357L970 1356M1197 1356L1198 1357L1197 1356z"/>
<path style="fill:#a1a12e; stroke:none;" d="M869 1357L870 1358L869 1357M930 1357L931 1358L930 1357z"/>
<path style="fill:#8e5c54; stroke:none;" d="M1158 1357L1159 1358L1158 1357M1208.33 1357.67L1208.67 1358.33L1208.33 1357.67z"/>
<path style="fill:#a1a12e; stroke:none;" d="M1272 1357L1273 1358L1272 1357z"/>
<path style="fill:#8e5c54; stroke:none;" d="M881 1358L882 1359L881 1358z"/>
<path style="fill:#a1a12e; stroke:none;" d="M883 1358L884 1359L883 1358M1039 1358L1040 1359L1039 1358z"/>
<path style="fill:#8e5c54; stroke:none;" d="M1218 1358L1219 1359L1218 1358M1013 1359L1014 1360L1013 1359z"/>
<path style="fill:#a1a12e; stroke:none;" d="M1089 1359L1090 1360L1089 1359M1208 1359L1209 1360L1208 1359M1218 1359L1219 1360L1218 1359z"/>
<path style="fill:#8e5c54; stroke:none;" d="M814 1360L815 1361L814 1360M880 1360L881 1361L880 1360M904 1360L905 1361L904 1360M928 1360L929 1361L928 1360z"/>
<path style="fill:#a1a12e; stroke:none;" d="M970 1360L970 1363L971 1363L970 1360z"/>
<path style="fill:#8e5c54; stroke:none;" d="M1065 1360L1065 1365L1066 1365L1065 1360z"/>
<path style="fill:#a1a12e; stroke:none;" d="M1160 1360L1161 1361L1160 1360M1219 1360L1220 1361L1219 1360z"/>
<path style="fill:#8e5c54; stroke:none;" d="M1278 1360L1279 1361L1278 1360z"/>
<path style="fill:#a1a12e; stroke:none;" d="M868 1361L869 1362L868 1361M880 1361L881 1362L880 1361z"/>
<path style="fill:#8e5c54; stroke:none;" d="M927 1361L928 1362L927 1361M1104 1361L1105 1362L1104 1361z"/>
<path style="fill:#a1a12e; stroke:none;" d="M1130 1361L1131 1362L1130 1361M1235 1361L1236 1362L1235 1361M911 1362L912 1363L911 1362M1046 1362L1047 1363L1046 1362M1221 1362L1222 1363L1221 1362M812 1363L813 1364L812 1363M826 1363L827 1364L826 1363M891 1363L892 1364L891 1363z"/>
<path style="fill:#8e5c54; stroke:none;" d="M925 1363L926 1364L925 1363M987 1363L988 1364L987 1363M1040 1363L1041 1364L1040 1363M1287 1363L1288 1364L1287 1363z"/>
<path style="fill:#a1a12e; stroke:none;" d="M904 1364L905 1365L904 1364z"/>
<path style="fill:#8e5c54; stroke:none;" d="M1127 1364L1128 1365L1127 1364z"/>
<path style="fill:#a1a12e; stroke:none;" d="M1222 1364L1223 1365L1222 1364M1126 1365L1127 1366L1126 1365z"/>
<path style="fill:#8e5c54; stroke:none;" d="M970 1366L971 1367L970 1366M1124 1366L1125 1367L1124 1366z"/>
<path style="fill:#a1a12e; stroke:none;" d="M1294 1366L1295 1367L1294 1366z"/>
<path style="fill:#8e5c54; stroke:none;" d="M879 1367L880 1368L879 1367M1044 1367L1045 1368L1044 1367z"/>
<path style="fill:#a1a12e; stroke:none;" d="M1073 1367L1074 1368L1073 1367z"/>
<path style="fill:#8e5c54; stroke:none;" d="M1088.33 1367.67L1088.67 1368.33L1088.33 1367.67M1122 1367L1123 1368L1122 1367z"/>
<path style="fill:#a1a12e; stroke:none;" d="M1221 1367L1222 1368L1221 1367M1246 1367L1247 1368L1246 1367z"/>
<path style="fill:#8e5c54; stroke:none;" d="M1262 1367L1263 1368L1262 1367z"/>
<path style="fill:#a1a12e; stroke:none;" d="M824 1368L825 1369L824 1368z"/>
<path style="fill:#8e5c54; stroke:none;" d="M936 1368L937 1369L936 1368z"/>
<path style="fill:#a1a12e; stroke:none;" d="M1043 1368L1044 1369L1043 1368z"/>
<path style="fill:#8e5c54; stroke:none;" d="M1221.33 1368.67L1221.67 1369.33L1221.33 1368.67M810 1369L811 1370L810 1369M1269 1371L1270 1372L1269 1371z"/>
<path style="fill:#a1a12e; stroke:none;" d="M1300 1371L1301 1372L1300 1371M933.333 1372.67L933.667 1373.33L933.333 1372.67M982 1372L983 1373L982 1372M1066.33 1372.67L1066.67 1373.33L1066.33 1372.67M1110 1372L1111 1373L1110 1372z"/>
<path style="fill:#8e5c54; stroke:none;" d="M1206 1372L1207 1373L1206 1372z"/>
<path style="fill:#a1a12e; stroke:none;" d="M1233 1372L1234 1373L1233 1372z"/>
<path style="fill:#8e5c54; stroke:none;" d="M1258 1372L1259 1373L1258 1372M884 1373L885 1374L884 1373M981 1373L982 1374L981 1373M1001 1373L1002 1374L1001 1373z"/>
<path style="fill:#a1a12e; stroke:none;" d="M1013 1374L1014 1375L1013 1374z"/>
<path style="fill:#8e5c54; stroke:none;" d="M1278 1374L1279 1375L1278 1374M881 1375L882 1376L881 1375M951 1375L952 1376L951 1375z"/>
<path style="fill:#a1a12e; stroke:none;" d="M954 1375L955 1376L954 1375z"/>
<path style="fill:#8e5c54; stroke:none;" d="M979 1375L980 1376L979 1375M1066.33 1375.67L1066.67 1376.33L1066.33 1375.67z"/>
<path style="fill:#a1a12e; stroke:none;" d="M1130 1375L1131 1376L1130 1375M1143 1375L1144 1376L1143 1375z"/>
<path style="fill:#8e5c54; stroke:none;" d="M1193 1375L1194 1376L1193 1375M1281 1375L1282 1376L1281 1375z"/>
<path style="fill:#a1a12e; stroke:none;" d="M862 1376L863 1377L862 1376z"/>
<path style="fill:#8e5c54; stroke:none;" d="M899 1376L900 1377L899 1376z"/>
<path style="fill:#a1a12e; stroke:none;" d="M1122 1376L1123 1377L1122 1376z"/>
<path style="fill:#8e5c54; stroke:none;" d="M1143 1376L1144 1377L1143 1376M1302 1376L1303 1377L1302 1376z"/>
<path style="fill:#a1a12e; stroke:none;" d="M1115 1377L1116 1378L1115 1377z"/>
<path style="fill:#8e5c54; stroke:none;" d="M1174 1377L1175 1378L1174 1377M823 1378L824 1379L823 1378z"/>
<path style="fill:#a1a12e; stroke:none;" d="M855 1378L856 1379L855 1378M1106 1378L1107 1379L1106 1378M897 1379L898 1380L897 1379M1086 1379L1086 1386L1087 1386L1086 1379z"/>
<path style="fill:#8e5c54; stroke:none;" d="M1105 1379L1106 1380L1105 1379z"/>
<path style="fill:#a1a12e; stroke:none;" d="M1192 1379L1192 1383L1193 1383L1192 1379M1285 1379L1286 1380L1285 1379M1158 1380L1159 1381L1158 1380z"/>
<path style="fill:#8e5c54; stroke:none;" d="M1205 1380L1206 1381L1205 1380z"/>
<path style="fill:#a1a12e; stroke:none;" d="M895 1381L896 1382L895 1381M995 1381L996 1382L995 1381M1013 1381L1014 1382L1013 1381z"/>
<path style="fill:#8e5c54; stroke:none;" d="M1049 1381L1050 1382L1049 1381M1239 1381L1240 1382L1239 1381M894 1382L895 1383L894 1382z"/>
<path style="fill:#a1a12e; stroke:none;" d="M1038 1382L1039 1383L1038 1382z"/>
<path style="fill:#8e5c54; stroke:none;" d="M1047 1382L1048 1383L1047 1382M810.333 1383.67L810.667 1384.33L810.333 1383.67M1161 1383L1162 1384L1161 1383M1260 1383L1261 1384L1260 1383z"/>
<path style="fill:#a1a12e; stroke:none;" d="M1302 1383L1303 1384L1302 1383z"/>
<path style="fill:#8e5c54; stroke:none;" d="M1138 1384L1139 1385L1138 1384M1162 1384L1163 1385L1162 1384M1220 1384L1221 1385L1220 1384z"/>
<path style="fill:#a1a12e; stroke:none;" d="M1254 1384L1255 1385L1254 1384M890 1385L891 1386L890 1385M924 1385L925 1386L924 1385z"/>
<path style="fill:#8e5c54; stroke:none;" d="M925 1385L926 1386L925 1385M1014 1385L1015 1386L1014 1385M1137 1385L1138 1386L1137 1385M1186 1385L1187 1386L1186 1385M1253 1385L1254 1386L1253 1385z"/>
<path style="fill:#a1a12e; stroke:none;" d="M1301 1385L1302 1386L1301 1385z"/>
<path style="fill:#8e5c54; stroke:none;" d="M868 1386L869 1387L868 1386z"/>
<path style="fill:#a1a12e; stroke:none;" d="M930 1386L931 1387L930 1386M1136 1386L1137 1387L1136 1386z"/>
<path style="fill:#8e5c54; stroke:none;" d="M1164 1386L1165 1387L1164 1386z"/>
<path style="fill:#a1a12e; stroke:none;" d="M940 1387L941 1388L940 1387M943 1387L944 1388L943 1387M1056 1387L1057 1388L1056 1387z"/>
<path style="fill:#8e5c54; stroke:none;" d="M1133 1387L1134 1388L1133 1387z"/>
<path style="fill:#a1a12e; stroke:none;" d="M1134 1387L1135 1388L1134 1387M1165 1387L1166 1388L1165 1387M1252 1387L1253 1388L1252 1387z"/>
<path style="fill:#8e5c54; stroke:none;" d="M1299 1387L1300 1388L1299 1387M864 1388L865 1389L864 1388z"/>
<path style="fill:#a1a12e; stroke:none;" d="M954 1388L955 1389L954 1388M958 1388L959 1389L958 1388z"/>
<path style="fill:#8e5c54; stroke:none;" d="M1067 1388L1068 1389L1067 1388M1130 1388L1131 1389L1130 1388z"/>
<path style="fill:#a1a12e; stroke:none;" d="M1131 1388L1132 1389L1131 1388z"/>
<path style="fill:#8e5c54; stroke:none;" d="M1251 1388L1252 1389L1251 1388M1259 1388L1260 1389L1259 1388z"/>
<path style="fill:#a1a12e; stroke:none;" d="M1012 1389L1013 1390L1012 1389M1141.33 1389.67L1141.67 1390.33L1141.33 1389.67z"/>
<path style="fill:#8e5c54; stroke:none;" d="M1183 1389L1184 1390L1183 1389M1250 1389L1251 1390L1250 1389M959 1390L960 1391L959 1390M1010 1390L1011 1391L1010 1390M1061 1390L1061 1391L1064 1391L1061 1390M1118 1390L1119 1391L1118 1390z"/>
<path style="fill:#a1a12e; stroke:none;" d="M1182 1390L1183 1391L1182 1390z"/>
<path style="fill:#8e5c54; stroke:none;" d="M1294 1390L1295 1391L1294 1390z"/>
<path style="fill:#a1a12e; stroke:none;" d="M817 1391L818 1392L817 1391M959 1391L960 1392L959 1391M978 1391L979 1392L978 1391M1114 1391L1115 1392L1114 1391M1176 1391L1176 1392L1179 1392L1176 1391M1193 1391L1194 1392L1193 1391z"/>
<path style="fill:#8e5c54; stroke:none;" d="M1292 1391L1293 1392L1292 1391M857 1392L858 1393L857 1392M970 1392L971 1393L970 1392z"/>
<path style="fill:#a1a12e; stroke:none;" d="M982 1392L983 1393L982 1392z"/>
<path style="fill:#8e5c54; stroke:none;" d="M1082 1392L1083 1393L1082 1392z"/>
<path style="fill:#a1a12e; stroke:none;" d="M1091 1392L1092 1393L1091 1392z"/>
<path style="fill:#8e5c54; stroke:none;" d="M1261 1392L1262 1393L1261 1392z"/>
<path style="fill:#8c8989; stroke:none;" d="M872 1422C855.151 1422.15 839.89 1449.43 851.804 1463.67C861.214 1474.92 877.289 1468.49 881 1456L883 1456C887.075 1462.67 894.352 1462.53 895 1454L896 1454C900.507 1472.91 931.585 1468.37 932 1449L910 1452L910 1451C920.689 1450.9 933.986 1439.64 925.397 1428.15C920.154 1421.14 908.371 1425.89 903.424 1430.61C900.95 1432.97 898.768 1435.87 897.38 1439C895.532 1443.17 895.038 1447.5 895 1452C885.58 1435.86 892.388 1417.58 885.627 1400C883.263 1393.86 876.624 1390.09 873.337 1397.98C870.419 1404.99 872 1414.57 872 1422z"/>
<path style="fill:#a1a12e; stroke:none;" d="M922 1393L923 1394L922 1393z"/>
<path style="fill:#8e5c54; stroke:none;" d="M1152 1393L1153 1394L1152 1393M1227 1393L1228 1394L1227 1393M1245 1393L1246 1394L1245 1393z"/>
<path style="fill:#a1a12e; stroke:none;" d="M1285 1393L1286 1394L1285 1393z"/>
<path style="fill:#8e5c54; stroke:none;" d="M827.667 1394.33L828.333 1394.67L827.667 1394.33z"/>
<path style="fill:#a1a12e; stroke:none;" d="M915 1394L916 1395L915 1394z"/>
<path style="fill:#8e5c54; stroke:none;" d="M962 1394L963 1395L962 1394M968 1394L969 1395L968 1394M1151 1394L1152 1395L1151 1394M1230 1394L1231 1395L1230 1394M883 1395L884 1396L883 1395z"/>
<path style="fill:#a1a12e; stroke:none;" d="M964 1395L965 1396L964 1395z"/>
<path style="fill:#8e5c54; stroke:none;" d="M1027 1395L1028 1396L1027 1395M1036 1395L1037 1396L1036 1395z"/>
<path style="fill:#a1a12e; stroke:none;" d="M873 1396L874 1397L873 1396z"/>
<path style="fill:#8e5c54; stroke:none;" d="M884 1396L885 1397L884 1396M1034 1396L1035 1397L1034 1396z"/>
<path style="fill:#a1a12e; stroke:none;" d="M1035 1396L1036 1397L1035 1396z"/>
<path style="fill:#8e5c54; stroke:none;" d="M873 1397L874 1398L873 1397M872 1399L873 1400L872 1399M885 1399L886 1400L885 1399M872 1401L873 1402L872 1401M886 1402L887 1403L886 1402z"/>
<path style="fill:#8c8989; stroke:none;" d="M974 1420C971.346 1430.26 969.338 1445.53 971.634 1456C972.589 1460.35 978.855 1467.51 982.972 1461.57C990.256 1451.06 976.282 1430.45 982.117 1419.22C985.418 1412.87 1000.7 1415.64 1000.7 1407.04C1000.7 1402.14 994.442 1402.05 991 1402.76C981.886 1404.64 973.791 1408.82 965 1411.66C961.924 1412.65 957.098 1413.26 956.377 1417.1C954.557 1426.79 970.192 1423.14 974 1420z"/>
<path style="fill:#8e5c54; stroke:none;" d="M996 1402L997 1403L996 1402z"/>
<path style="fill:#a1a12e; stroke:none;" d="M997 1402L998 1403L997 1402z"/>
<path style="fill:#8c8989; stroke:none;" d="M1010.11 1402.79C1002.74 1405.44 1007.75 1416.32 1014.72 1413.24C1020.91 1410.5 1016.59 1400.45 1010.11 1402.79M1142 1453L1125 1449L1125 1448C1128.85 1446.37 1131.98 1443.98 1134.91 1440.96C1137.17 1438.63 1139.4 1435.99 1140.72 1433C1150.44 1411.05 1110.07 1405.62 1102.03 1420.1C1098.32 1426.78 1101 1441.44 1101 1449L1085 1446C1091.03 1436.87 1096.72 1429.31 1091.87 1418.02C1088.4 1409.95 1071.12 1408.14 1065.64 1415.31C1062.65 1419.23 1067.3 1423.96 1067.69 1428C1068.78 1439.3 1059.98 1449.5 1064.75 1460.95C1068.5 1469.98 1075.24 1461.56 1076 1456C1084.94 1458.98 1112.53 1472.46 1113 1458C1121.72 1461.87 1141.55 1471.13 1150.47 1464.14C1155.59 1460.13 1153.77 1450.48 1161 1449.12C1173.5 1446.78 1177.29 1457.21 1188 1460C1188.27 1467.24 1195.03 1468.02 1201 1468C1211.01 1467.97 1227.48 1464.17 1229.62 1452.42C1231.74 1440.77 1221.02 1435.57 1212 1432.42C1208.53 1431.21 1202.14 1430.45 1201.62 1425.9C1200.46 1415.76 1210.28 1412.82 1218 1413L1219 1420L1221 1420C1227.45 1406.13 1214.59 1398.56 1201.58 1403.48C1187.7 1408.74 1185.15 1428.36 1191 1440C1184.96 1436.96 1180.22 1435.98 1177.69 1429.09C1175.25 1422.41 1175.98 1408.19 1169.77 1403.88C1164.05 1399.92 1158.61 1405 1156.2 1410C1150.27 1422.29 1142.04 1439.31 1142 1453z"/>
<path style="fill:#8e5c54; stroke:none;" d="M1164.67 1402.33L1165.33 1402.67L1164.67 1402.33M1167 1402L1168 1403L1167 1402z"/>
<path style="fill:#a1a12e; stroke:none;" d="M1204 1402L1205 1403L1204 1402z"/>
<path style="fill:#8e5c54; stroke:none;" d="M987.667 1403.33L988.333 1403.67L987.667 1403.33M1202 1403L1203 1404L1202 1403z"/>
<path style="fill:#8c8989; stroke:none;" d="M1029 1452L1029 1442C1035.27 1442.94 1044.93 1439.71 1048.68 1434.24C1054.85 1425.24 1042.49 1426.99 1038 1428.68C1035.54 1429.61 1033.29 1430.7 1031 1432L1031 1423C1038.46 1420.65 1047.85 1417.23 1054.83 1413.51C1056.89 1412.41 1060.52 1410.1 1059.94 1407.28C1059.34 1404.32 1053.27 1404.18 1051 1404.18C1044.94 1404.19 1027.6 1408.15 1023.5 1412.37C1018.3 1417.71 1018.3 1432.84 1016.93 1440C1015.78 1446.08 1014.18 1456.57 1018.56 1461.72C1026.12 1470.6 1046.21 1462.34 1054 1457.65C1057.55 1455.51 1062.68 1451.02 1061.63 1446.24C1060.86 1442.78 1056.44 1443.89 1054 1444.48C1045.82 1446.46 1036.85 1449.04 1029 1452z"/>
<path style="fill:#a1a12e; stroke:none;" d="M887 1405L888 1406L887 1405M1197 1405L1198 1406L1197 1405M1221 1405L1222 1406L1221 1405z"/>
<path style="fill:#8e5c54; stroke:none;" d="M1195 1407L1196 1408L1195 1407M1194 1408L1195 1409L1194 1408M968 1410L969 1411L968 1410M1000 1410L1001 1411L1000 1410M1017 1410L1018 1411L1017 1410M1023 1411L1024 1412L1023 1411M1083.67 1411.33L1084.33 1411.67L1083.67 1411.33z"/>
<path style="fill:#a1a12e; stroke:none;" d="M1155 1411L1156 1412L1155 1411M1192 1411L1193 1412L1192 1411z"/>
<path style="fill:#8e5c54; stroke:none;" d="M996 1412L997 1413L996 1412M1007 1412L1008 1413L1007 1412M1022 1412L1023 1413L1022 1412M1173 1412L1174 1413L1173 1412M1212 1412L1213 1413L1212 1412M1009 1413L1010 1414L1009 1413M1052 1414L1053 1415L1052 1414z"/>
<path style="fill:#a1a12e; stroke:none;" d="M1065 1414L1066 1415L1065 1414z"/>
<path style="fill:#8e5c54; stroke:none;" d="M1111 1414L1112 1415L1111 1414M1134 1414L1135 1415L1134 1414z"/>
<path style="fill:#a1a12e; stroke:none;" d="M1206 1414L1207 1415L1206 1414M889 1415L890 1416L889 1415M987 1415L988 1416L987 1415z"/>
<path style="fill:#8e5c54; stroke:none;" d="M1174.33 1415.67L1174.67 1416.33L1174.33 1415.67M1190 1415L1191 1416L1190 1415z"/>
<path style="fill:#a1a12e; stroke:none;" d="M1046 1416L1047 1417L1046 1416M1105 1416L1106 1417L1105 1416z"/>
<path style="fill:#8c8989; stroke:none;" d="M1013 1452L1008 1453L1008 1428C1008 1425.06 1008.72 1420.44 1006.11 1418.32C1001.81 1414.85 999.3 1420.71 998.616 1424C996.732 1433.08 994.221 1442.64 995.104 1452C996.583 1467.68 1012.99 1468.58 1013 1452z"/>
<path style="fill:#a1a12e; stroke:none;" d="M1044 1417L1045 1418L1044 1417z"/>
<path style="fill:#8e5c54; stroke:none;" d="M1103 1417L1104 1418L1103 1417M1138 1417L1139 1418L1138 1417M1153 1417L1154 1418L1153 1417z"/>
<path style="fill:#a1a12e; stroke:none;" d="M1006 1418L1007 1419L1006 1418M1041 1418L1042 1419L1041 1418M1102 1418L1103 1419L1102 1418M1139 1418L1140 1419L1139 1418z"/>
<path style="fill:#8e5c54; stroke:none;" d="M1037 1419L1038 1420L1037 1419M1064 1419L1065 1420L1064 1419z"/>
<path style="fill:#a1a12e; stroke:none;" d="M1101 1419L1102 1420L1101 1419M1140 1419L1141 1420L1140 1419M1218 1419L1219 1420L1218 1419z"/>
<path style="fill:#8e5c54; stroke:none;" d="M973 1420L974 1421L973 1420M1034 1420L1035 1421L1034 1420z"/>
<path style="fill:#a1a12e; stroke:none;" d="M1188 1420L1189 1421L1188 1420M1202 1420L1203 1421L1202 1420M956 1421L957 1422L956 1421z"/>
<path style="fill:#040403; stroke:none;" d="M1077 1421L1077 1435C1082.27 1431.07 1086.59 1421.75 1077 1421z"/>
<path style="fill:#8e5c54; stroke:none;" d="M864 1422L865 1423L864 1422z"/>
<path style="fill:#a1a12e; stroke:none;" d="M957 1422L958 1423L957 1422M1141 1422L1142 1423L1141 1422z"/>
<path style="fill:#8e5c54; stroke:none;" d="M862 1423L863 1424L862 1423M970 1423L971 1424L970 1423z"/>
<path style="fill:#a1a12e; stroke:none;" d="M1093 1423L1094 1424L1093 1423M1114 1423L1115 1424L1114 1423z"/>
<path style="fill:#040403; stroke:none;" d="M1111 1424L1112 1442C1116.36 1440.12 1133.19 1431.7 1129.86 1425.32C1127.32 1420.44 1115.23 1423.47 1111 1424z"/>
<path style="fill:#8e5c54; stroke:none;" d="M1129 1423L1130 1424L1129 1423M1141 1423L1142 1424L1141 1423z"/>
<path style="fill:#a1a12e; stroke:none;" d="M967 1424L968 1425L967 1424M969 1424L970 1425L969 1424M1176 1424L1177 1425L1176 1424z"/>
<path style="fill:#8e5c54; stroke:none;" d="M910 1425L911 1426L910 1425z"/>
<path style="fill:#a1a12e; stroke:none;" d="M1019 1426L1020 1427L1019 1426M1131 1426L1132 1427L1131 1426z"/>
<path style="fill:#8e5c54; stroke:none;" d="M1176 1426L1177 1427L1176 1426M1030 1427L1031 1428L1030 1427M1041 1427L1042 1428L1041 1427z"/>
<path style="fill:#a1a12e; stroke:none;" d="M1067 1427L1067 1432L1068 1432L1067 1427M1111 1427L1112 1428L1111 1427z"/>
<path style="fill:#8e5c54; stroke:none;" d="M906 1428L907 1429L906 1428M1130 1428L1131 1429L1130 1428M1149 1428L1150 1429L1149 1428M1030 1429L1031 1430L1030 1429M1162 1429L1163 1430L1162 1429z"/>
<path style="fill:#040403; stroke:none;" d="M1163 1429L1161 1437L1165 1437L1163 1429z"/>
<path style="fill:#8e5c54; stroke:none;" d="M997 1430L998 1431L997 1430M1101 1430L1102 1431L1101 1430z"/>
<path style="fill:#a1a12e; stroke:none;" d="M1205 1430L1206 1431L1205 1430M902 1431L903 1432L902 1431M1093 1431L1094 1432L1093 1431M1178 1431L1179 1432L1178 1431z"/>
<path style="fill:#040403; stroke:none;" d="M869 1432C864.344 1437.46 858.27 1446.12 860.448 1453.89C863.663 1465.36 874.032 1449.7 876 1446L871 1448C870.806 1442.07 873.593 1436.9 869 1432z"/>
<path style="fill:#a1a12e; stroke:none;" d="M1212 1432L1213 1433L1212 1432M853 1433L854 1434L853 1433z"/>
<path style="fill:#8e5c54; stroke:none;" d="M867 1433L868 1434L867 1433z"/>
<path style="fill:#a1a12e; stroke:none;" d="M996 1433L997 1434L996 1433M1179 1433L1180 1434L1179 1433M1214 1433L1215 1434L1214 1433z"/>
<path style="fill:#8e5c54; stroke:none;" d="M871 1434L872 1435L871 1434z"/>
<path style="fill:#a1a12e; stroke:none;" d="M889 1434L890 1435L889 1434z"/>
<path style="fill:#8e5c54; stroke:none;" d="M1048 1434L1049 1435L1048 1434M1078 1434L1079 1435L1078 1434M1111 1434L1112 1435L1111 1434M899 1435L900 1436L899 1435z"/>
<path style="fill:#040403; stroke:none;" d="M916 1435L912 1440C914.885 1439.13 916.672 1438.18 916 1435z"/>
<path style="fill:#a1a12e; stroke:none;" d="M917.333 1435.67L917.667 1436.33L917.333 1435.67M1017 1435L1018 1436L1017 1435M1122 1435L1123 1436L1122 1435M1188 1435L1189 1436L1188 1435M865 1436L866 1437L865 1436M898 1436L899 1437L898 1436z"/>
<path style="fill:#8e5c54; stroke:none;" d="M982 1436L983 1437L982 1436M1017.33 1436.67L1017.67 1437.33L1017.33 1436.67M1046 1436L1047 1437L1046 1436M1138 1436L1139 1437L1138 1436z"/>
<path style="fill:#a1a12e; stroke:none;" d="M1045 1437L1046 1438L1045 1437M1223 1437L1224 1438L1223 1437M888 1438L889 1439L888 1438z"/>
<path style="fill:#8e5c54; stroke:none;" d="M912 1438L913 1439L912 1438z"/>
<path style="fill:#a1a12e; stroke:none;" d="M971 1438L971 1444L972 1444L971 1438M850 1439L851 1440L850 1439M863 1439L864 1440L863 1439z"/>
<path style="fill:#8e5c54; stroke:none;" d="M995.333 1439.67L995.667 1440.33L995.333 1439.67z"/>
<path style="fill:#a1a12e; stroke:none;" d="M1089 1439L1090 1440L1089 1439z"/>
<path style="fill:#8e5c54; stroke:none;" d="M1111.33 1439.67L1111.67 1440.33L1111.33 1439.67M1117 1439L1118 1440L1117 1439M1189 1439L1190 1440L1189 1439z"/>
<path style="fill:#a1a12e; stroke:none;" d="M1225 1439L1226 1440L1225 1439M896 1440L897 1441L896 1440z"/>
<path style="fill:#8e5c54; stroke:none;" d="M1038 1440L1039 1441L1038 1440z"/>
<path style="fill:#a1a12e; stroke:none;" d="M1039 1440L1040 1441L1039 1440z"/>
<path style="fill:#8e5c54; stroke:none;" d="M1115 1440L1116 1441L1115 1440z"/>
<path style="fill:#a1a12e; stroke:none;" d="M1135 1440L1136 1441L1135 1440z"/>
<path style="fill:#040403; stroke:none;" d="M1191 1440L1188 1444C1195.52 1455.87 1203.36 1456.34 1216 1450C1210.61 1444.15 1198.53 1442.31 1191 1440z"/>
<path style="fill:#8e5c54; stroke:none;" d="M896 1441L897 1442L896 1441M1016 1441L1017 1442L1016 1441z"/>
<path style="fill:#a1a12e; stroke:none;" d="M1036 1441L1037 1442L1036 1441z"/>
<path style="fill:#8e5c54; stroke:none;" d="M1195 1441L1196 1442L1195 1441z"/>
<path style="fill:#a1a12e; stroke:none;" d="M849 1442L850 1443L849 1442z"/>
<path style="fill:#8e5c54; stroke:none;" d="M861 1442L862 1443L861 1442z"/>
<path style="fill:#a1a12e; stroke:none;" d="M926 1442L927 1443L926 1442z"/>
<path style="fill:#8e5c54; stroke:none;" d="M995 1442L996 1443L995 1442M1029.67 1442.33L1030.33 1442.67L1029.67 1442.33z"/>
<path style="fill:#a1a12e; stroke:none;" d="M1143 1442L1144 1443L1143 1442M1190 1442L1191 1443L1190 1442M1196 1442L1197 1443L1196 1442M861 1443L862 1444L861 1443M890 1443L891 1444L890 1443z"/>
<path style="fill:#8e5c54; stroke:none;" d="M1016.33 1443.67L1016.67 1444.33L1016.33 1443.67z"/>
<path style="fill:#a1a12e; stroke:none;" d="M1064 1443L1065 1444L1064 1443M1189 1443L1190 1444L1189 1443M1228 1443L1229 1444L1228 1443M1053 1444L1054 1445L1053 1444M891 1445L892 1446L891 1445M1063 1445L1064 1446L1063 1445M1085 1445L1086 1446L1085 1445M1129 1445L1130 1446L1129 1445z"/>
<path style="fill:#8e5c54; stroke:none;" d="M923 1446L924 1447L923 1446M971 1446L972 1447L971 1446M1047 1446L1048 1447L1047 1446M1088 1446L1089 1447L1088 1446z"/>
<path style="fill:#a1a12e; stroke:none;" d="M1229 1446L1230 1447L1229 1446M848 1447L848 1452L849 1452L848 1447z"/>
<path style="fill:#8e5c54; stroke:none;" d="M922 1447L923 1448L922 1447z"/>
<path style="fill:#a1a12e; stroke:none;" d="M860 1448L861 1449L860 1448M874 1448L875 1449L874 1448M921 1448L922 1449L921 1448z"/>
<path style="fill:#8e5c54; stroke:none;" d="M1043 1448L1044 1449L1043 1448z"/>
<path style="fill:#a1a12e; stroke:none;" d="M1125 1448L1126 1449L1125 1448z"/>
<path style="fill:#8e5c54; stroke:none;" d="M1165 1448L1166 1449L1165 1448z"/>
<path style="fill:#a1a12e; stroke:none;" d="M1191 1448L1192 1449L1191 1448M1215 1448L1216 1449L1215 1448z"/>
<path style="fill:#8e5c54; stroke:none;" d="M919 1449L920 1450L919 1449z"/>
<path style="fill:#a1a12e; stroke:none;" d="M924 1449L925 1450L924 1449z"/>
<path style="fill:#8e5c54; stroke:none;" d="M1037 1449L1038 1450L1037 1449M1216 1449L1217 1450L1216 1449M873 1450L874 1451L873 1450M922 1450L923 1451L922 1450z"/>
<path style="fill:#a1a12e; stroke:none;" d="M1061 1450L1062 1451L1061 1450z"/>
<path style="fill:#8e5c54; stroke:none;" d="M1156 1450L1157 1451L1156 1450z"/>
<path style="fill:#a1a12e; stroke:none;" d="M1174 1450L1175 1451L1174 1450z"/>
<path style="fill:#8e5c54; stroke:none;" d="M1215 1450L1216 1451L1215 1450z"/>
<path style="fill:#a1a12e; stroke:none;" d="M920 1451L921 1452L920 1451z"/>
<path style="fill:#8e5c54; stroke:none;" d="M1060 1451L1061 1452L1060 1451M1063 1451L1064 1452L1063 1451M1133 1451L1134 1452L1133 1451z"/>
<path style="fill:#a1a12e; stroke:none;" d="M1141 1451L1142 1452L1141 1451z"/>
<path style="fill:#8e5c54; stroke:none;" d="M1141 1452L1142 1453L1141 1452z"/>
<path style="fill:#a1a12e; stroke:none;" d="M1192 1452L1193 1453L1192 1452z"/>
<path style="fill:#8e5c54; stroke:none;" d="M1229 1452L1230 1453L1229 1452z"/>
<path style="fill:#a1a12e; stroke:none;" d="M1059 1453L1060 1454L1059 1453M1205 1453L1206 1454L1205 1453z"/>
<path style="fill:#8e5c54; stroke:none;" d="M1206 1453L1207 1454L1206 1453z"/>
<path style="fill:#a1a12e; stroke:none;" d="M848.333 1454.67L848.667 1455.33L848.333 1454.67M895 1454L896 1455L895 1454z"/>
<path style="fill:#8e5c54; stroke:none;" d="M1058 1454L1059 1455L1058 1454M1064 1454L1065 1455L1064 1454z"/>
<path style="fill:#a1a12e; stroke:none;" d="M1155 1454L1156 1455L1155 1454z"/>
<path style="fill:#8e5c54; stroke:none;" d="M860 1455L861 1456L860 1455z"/>
<path style="fill:#a1a12e; stroke:none;" d="M931 1455L932 1456L931 1455z"/>
<path style="fill:#8e5c54; stroke:none;" d="M971 1455L972 1456L971 1455z"/>
<path style="fill:#a1a12e; stroke:none;" d="M995 1455L996 1456L995 1455M1057 1455L1058 1456L1057 1455z"/>
<path style="fill:#8e5c54; stroke:none;" d="M881 1456L882 1457L881 1456z"/>
<path style="fill:#a1a12e; stroke:none;" d="M971 1456L972 1457L971 1456M1077 1456L1078 1457L1077 1456z"/>
<path style="fill:#8e5c54; stroke:none;" d="M1078 1456L1079 1457L1078 1456z"/>
<path style="fill:#a1a12e; stroke:none;" d="M883 1457L884 1458L883 1457M984.333 1457.67L984.667 1458.33L984.333 1457.67z"/>
<path style="fill:#8e5c54; stroke:none;" d="M996 1457L997 1458L996 1457M1016 1457L1017 1458L1016 1457M1227 1457L1228 1458L1227 1457M897 1458L898 1459L897 1458M1075 1458L1076 1459L1075 1458M885 1459L886 1460L885 1459z"/>
<path style="fill:#a1a12e; stroke:none;" d="M894 1459L895 1460L894 1459M929 1459L930 1460L929 1459z"/>
<path style="fill:#8e5c54; stroke:none;" d="M1086 1459L1087 1460L1086 1459z"/>
<path style="fill:#a1a12e; stroke:none;" d="M1116 1459L1117 1460L1116 1459M1185 1459L1186 1460L1185 1459M928 1460L929 1461L928 1460M997 1460L998 1461L997 1460z"/>
<path style="fill:#8e5c54; stroke:none;" d="M1089 1460L1090 1461L1089 1460M1119 1460L1120 1461L1119 1460z"/>
<path style="fill:#a1a12e; stroke:none;" d="M1187 1460L1188 1461L1187 1460M888 1461L889 1462L888 1461z"/>
<path style="fill:#8e5c54; stroke:none;" d="M927 1461L928 1462L927 1461M1012 1461L1013 1462L1012 1461z"/>
<path style="fill:#a1a12e; stroke:none;" d="M1045 1461L1046 1462L1045 1461M1064 1461L1065 1462L1064 1461M1092 1461L1093 1462L1092 1461z"/>
<path style="fill:#8e5c54; stroke:none;" d="M1093 1461L1094 1462L1093 1461z"/>
<path style="fill:#a1a12e; stroke:none;" d="M1121 1461L1122 1462L1121 1461z"/>
<path style="fill:#8e5c54; stroke:none;" d="M1122 1461L1123 1462L1122 1461M1223 1461L1224 1462L1223 1461M999 1462L1000 1463L999 1462M1074 1462L1075 1463L1074 1462z"/>
<path style="fill:#a1a12e; stroke:none;" d="M1152 1462L1153 1463L1152 1462z"/>
<path style="fill:#8e5c54; stroke:none;" d="M1128 1463L1129 1464L1128 1463M1151 1463L1152 1464L1151 1463M1008 1464L1009 1465L1008 1464z"/>
<path style="fill:#a1a12e; stroke:none;" d="M1009 1464L1010 1465L1009 1464z"/>
<path style="fill:#8e5c54; stroke:none;" d="M1022 1464L1023 1465L1022 1464z"/>
<path style="fill:#a1a12e; stroke:none;" d="M1130 1464L1131 1465L1130 1464M1218 1464L1219 1465L1218 1464M875 1465L876 1466L875 1465M910.667 1465.33L911.333 1465.67L910.667 1465.33z"/>
<path style="fill:#8e5c54; stroke:none;" d="M1137 1465L1138 1466L1137 1465M1190 1465L1191 1466L1190 1465z"/>
<path style="fill:#a1a12e; stroke:none;" d="M874 1466L875 1467L874 1466M1140 1466L1141 1467L1140 1466M1142.67 1466.33L1143.33 1466.67L1142.67 1466.33z"/>
<path style="fill:#8e5c54; stroke:none;" d="M856 1467L857 1468L856 1467M859 1468L860 1469L859 1468z"/>
<path style="fill:#a1a12e; stroke:none;" d="M861 1469L862 1470L861 1469z"/>
<path style="fill:#8e5c54; stroke:none;" d="M863 1469L863 1470L867 1470L863 1469z"/>
<path style="fill:#a1a12e; stroke:none;" d="M868 1469L869 1470L868 1469z"/>
</svg>
